<svg width="106" height="38" viewBox="0 0 106 38" fill="none" xmlns="http://www.w3.org/2000/svg">
<path fill-rule="evenodd" clip-rule="evenodd" d="M45.2271 12.8162C47.1638 12.4482 49.1005 12.0609 51.0179 11.6929C50.9985 20.2726 50.9985 28.833 51.0179 37.3933C49.1005 37.006 47.1638 36.5993 45.2464 36.2313C45.1883 35.476 45.2271 34.7206 45.2271 33.9653C45.2077 26.935 45.2077 19.8853 45.2271 12.8162ZM92.0766 16.6122C90.4498 16.6509 88.7842 17.1545 87.5253 18.2003C86.4795 19.0525 85.7241 20.2145 85.298 21.4928C84.8332 22.8679 84.7364 24.3591 84.9107 25.8117C85.1044 27.4773 85.7629 29.1235 86.9249 30.3436C87.8352 31.312 89.0747 31.9899 90.3723 32.2804C91.9991 32.6483 93.7616 32.5902 95.2916 31.8737C96.4149 31.3701 97.3445 30.4792 98.003 29.4334C98.739 28.252 99.1069 26.8769 99.2232 25.4824C99.3587 23.9137 99.1844 22.3062 98.6034 20.8343C98.0998 19.5173 97.1896 18.3359 95.9694 17.5806C94.8074 16.864 93.4323 16.5541 92.0766 16.6122ZM91.2244 11.2087C94.0327 11.0151 96.9765 11.538 99.3975 13.0293C100.753 13.8621 101.915 14.966 102.825 16.2636C103.62 17.4256 104.201 18.7233 104.607 20.079C105.033 21.5315 105.188 23.0615 105.208 24.5722C105.208 27.3417 104.569 30.1693 103.039 32.5128C101.702 34.6044 99.6686 36.2313 97.3445 37.0835C95.8339 37.6451 94.2458 37.9163 92.6383 37.955C89.617 38.0131 86.4988 37.2771 84.0392 35.4953C81.9475 34.0041 80.4175 31.8156 79.6428 29.3753C79.1005 27.7484 78.8875 26.0054 78.9068 24.2817C78.9262 21.2797 79.7977 18.2197 81.6764 15.8569C83.2064 13.9008 85.3949 12.5063 87.7771 11.8091C88.881 11.4605 90.043 11.2668 91.2244 11.2087ZM8.19678 12.3514C9.59123 11.538 11.1987 11.1506 12.8062 11.17C15.3627 11.2668 17.8223 12.5838 19.3136 14.6755C20.0689 13.649 21.1148 12.855 22.2381 12.2933C24.7752 11.0732 27.8546 10.8795 30.4692 11.9447C31.6893 12.4482 32.7933 13.2229 33.6454 14.23C34.517 15.2565 35.098 16.496 35.4466 17.7743C35.8146 19.1106 35.9114 20.505 35.8727 21.8801C35.8727 27.0512 35.8727 32.2416 35.8727 37.4127C33.9553 37.0254 32.0186 36.6186 30.0818 36.2507C30.0625 31.2926 30.0818 26.3346 30.0625 21.3766C30.0818 20.2339 29.6751 19.0719 28.8617 18.2778C27.9902 17.3869 26.7119 16.9608 25.4724 16.9802C24.3685 16.9608 23.2452 17.2901 22.3737 17.9873C21.3859 18.762 20.863 20.0402 20.863 21.2991C20.863 26.6639 20.863 32.048 20.863 37.4127C18.9263 37.0254 16.9895 36.6186 15.0528 36.2507C15.0334 34.6625 15.0528 33.0551 15.0334 31.4476C15.0334 28.1164 15.0334 24.7852 15.0334 21.4347C15.0722 20.292 14.6848 19.1106 13.8714 18.2972C13.1548 17.5612 12.1671 17.1351 11.1793 17.0189C10.2303 16.9221 9.26198 16.9996 8.37109 17.3675C7.44145 17.7549 6.64739 18.4908 6.22131 19.4011C5.9308 20.0209 5.79523 20.6987 5.79523 21.3766C5.79523 25.5599 5.79523 29.7433 5.79523 33.9266C5.8146 35.0886 5.77587 36.2507 5.8146 37.4127C3.87787 37.0447 1.9605 36.6186 0.0431405 36.27C0.00440591 35.5922 0.0625079 34.895 0.00440592 34.2365C0.0237732 33.4618 0.0237732 32.6871 0.00440592 31.9124C0.0625079 31.1958 0.00440592 30.4598 0.0237732 29.7432C0.0237732 27.6903 0.0237732 25.6374 0.0237732 23.5844C0.00440592 22.3062 0.0431405 21.0086 0.00440592 19.7304C0.0237732 19.0138 0.0237732 18.2778 0.00440592 17.5612C0.0431405 16.128 0.0237732 14.7142 0.0237732 13.281C0.0431405 13.1455 -0.0730633 12.9324 0.0818752 12.855C1.99924 12.487 3.89724 12.119 5.8146 11.751C5.79523 12.6225 5.8146 13.4941 5.8146 14.3656C6.49246 13.5522 7.28652 12.855 8.19678 12.3514ZM71.373 11.5573C72.3026 11.4024 73.2516 11.2475 74.1812 11.0925C74.1812 13.1067 74.1812 15.1209 74.1812 17.1351C73.2516 17.3094 72.322 17.4837 71.3923 17.6387C69.9979 17.8711 68.5453 18.2778 67.4995 19.2849C66.6473 20.079 66.2406 21.241 66.1631 22.3837C66.105 23.1971 66.1438 24.0105 66.1438 24.8433C66.1438 29.0267 66.1438 33.21 66.1438 37.3933C64.5363 37.0641 62.9288 36.7348 61.3019 36.425C60.9921 36.3669 60.7016 36.2894 60.3723 36.2507C60.2949 35.8052 60.353 35.3598 60.3336 34.9143C60.3336 30.4598 60.3336 26.0247 60.3336 21.5702C60.3723 20.1758 60.6047 18.762 61.1857 17.4644C61.7474 16.1668 62.7351 15.0628 63.8972 14.2494C65.4466 13.1842 67.2477 12.5451 69.0682 12.0609C69.8429 11.8866 70.5789 11.6736 71.373 11.5573ZM47.5512 0.459878C48.4808 0.343674 49.4879 0.44051 50.282 1.00216C51.1922 1.60255 51.6958 2.68712 51.7151 3.75232C51.7732 4.0622 51.6958 4.39144 51.6958 4.70132C51.5989 5.66968 51.0954 6.59932 50.2626 7.1416C49.3911 7.72262 48.2677 7.81946 47.2413 7.60641C46.3891 7.43211 45.5951 6.88982 45.1109 6.1345C44.5492 5.2436 44.4524 4.1203 44.6654 3.09383C44.8591 2.12547 45.5176 1.23457 46.4085 0.808489C46.7765 0.634183 47.1638 0.51798 47.5512 0.459878Z" fill="#050038"/>
</svg>
