<svg width="79" height="28" viewBox="0 0 79 28" fill="none" xmlns="http://www.w3.org/2000/svg">
<path d="M4.54606 19.8605C4.87997 20.7523 5.34226 21.5148 5.93303 22.148C6.52379 22.7812 7.22367 23.2658 8.03266 23.6019C8.84174 23.9379 9.72141 24.1059 10.6717 24.1059C11.5964 24.1059 12.4632 23.9314 13.2723 23.5824C14.0814 23.2334 14.7876 22.7424 15.3912 22.1092C15.9947 21.4759 16.4635 20.7199 16.7974 19.8411C17.1313 18.9624 17.2983 17.9803 17.2983 16.8946V0.145996H21.3435V27.2849H17.3368V24.7649C16.4379 25.7211 15.3783 26.4578 14.1583 26.9748C12.9383 27.4917 11.6221 27.7502 10.2094 27.7502C8.77107 27.7502 7.42911 27.4981 6.1834 26.9941C4.93777 26.4901 3.85896 25.773 2.94725 24.8424C2.03553 23.9119 1.3163 22.7942 0.789814 21.4889C0.263243 20.1836 0 18.7298 0 17.1272V0.145996H4.04523V16.8946C4.04523 17.9803 4.21214 18.9688 4.54606 19.8605Z" fill="#010202"/>
<path d="M28.3164 0.145996V10.0323C29.2153 9.12768 30.2556 8.41051 31.437 7.88061C32.6184 7.3507 33.9027 7.08579 35.2896 7.08579C36.7279 7.08579 38.0762 7.35714 39.3348 7.89991C40.5933 8.44268 41.6848 9.17933 42.6095 10.1099C43.5342 11.0404 44.2662 12.1388 44.8055 13.4053C45.3449 14.6718 45.6145 16.0158 45.6145 17.4374C45.6145 18.8589 45.3449 20.1965 44.8055 21.45C44.2662 22.7036 43.5342 23.7957 42.6095 24.726C41.6848 25.6565 40.5933 26.3932 39.3348 26.936C38.0762 27.4787 36.7279 27.7501 35.2896 27.7501C33.9026 27.7501 32.612 27.4852 31.4177 26.9553C30.2234 26.4254 29.1768 25.7082 28.2778 24.8036V27.2849H24.4253V0.145996H28.3164ZM28.7594 20.1125C29.1061 20.9396 29.5877 21.6633 30.2042 22.2837C30.8206 22.904 31.5397 23.3951 32.3616 23.757C33.1835 24.1188 34.0696 24.2997 35.0199 24.2997C35.9446 24.2997 36.8178 24.1188 37.6397 23.757C38.4615 23.3951 39.1742 22.9041 39.7779 22.2837C40.3815 21.6634 40.863 20.9396 41.2226 20.1125C41.5822 19.2854 41.762 18.3938 41.762 17.4374C41.762 16.4811 41.5822 15.5829 41.2226 14.7428C40.863 13.9028 40.3815 13.1727 39.7779 12.5524C39.1743 11.9321 38.4616 11.4474 37.6397 11.0985C36.8177 10.7497 35.9445 10.5751 35.0199 10.5751C34.0953 10.5751 33.2221 10.7496 32.4002 11.0985C31.5783 11.4475 30.8592 11.9321 30.2427 12.5524C29.6264 13.1727 29.1383 13.9028 28.7787 14.7428C28.4192 15.5829 28.2394 16.4811 28.2394 17.4374C28.2393 18.3938 28.4127 19.2854 28.7594 20.1125Z" fill="#010202"/>
<path d="M47.81 13.4441C48.3236 12.2034 49.0301 11.1114 49.9289 10.168C50.8278 9.22464 51.8938 8.48156 53.1266 7.93879C54.3595 7.39602 55.695 7.12467 57.1333 7.12467C58.546 7.12467 59.8559 7.38315 61.063 7.90001C62.2701 8.41696 63.3103 9.13423 64.1836 10.0518C65.0569 10.9693 65.7376 12.0549 66.2254 13.3084C66.7135 14.562 66.9575 15.9254 66.9575 17.3987V18.6782H50.9692C51.0977 19.4794 51.3545 20.2225 51.7397 20.9073C52.1251 21.5922 52.6065 22.1867 53.1844 22.6907C53.7623 23.1948 54.4173 23.589 55.1493 23.8732C55.8813 24.1575 56.6582 24.2998 57.4801 24.2998C59.8174 24.2998 61.7052 23.3305 63.1435 21.3919L65.9559 23.4855C64.9799 24.8037 63.7728 25.8376 62.3345 26.5871C60.8961 27.3366 59.2781 27.7114 57.4802 27.7114C56.0162 27.7114 54.6485 27.4528 53.3772 26.936C52.1058 26.4191 51.0014 25.6953 50.064 24.7648C49.1265 23.8343 48.3881 22.7423 47.8487 21.4888C47.3094 20.2353 47.0396 18.8718 47.0396 17.3986C47.0395 16.0029 47.2964 14.6847 47.81 13.4441ZM53.223 11.9126C52.1314 12.8302 51.4058 14.0514 51.0463 15.5764H63.0279C62.694 14.0514 61.9812 12.8302 60.8897 11.9126C59.7981 10.9951 58.5203 10.5363 57.0563 10.5363C55.5923 10.5363 54.3145 10.9951 53.223 11.9126Z" fill="#010202"/>
<path d="M74.2388 12.3585C73.4169 13.2631 73.006 14.4908 73.006 16.0417V27.285H69.1148V7.51232H72.9673V9.95484C73.4554 9.15359 74.0911 8.52032 74.8744 8.05509C75.6578 7.58979 76.5888 7.35713 77.6676 7.35713H79.016V11.0015H77.3979C76.1137 11.0016 75.0607 11.4539 74.2388 12.3585Z" fill="#010202"/>
</svg>
