<svg width="943" height="147" viewBox="0 0 943 147" fill="none" xmlns="http://www.w3.org/2000/svg">
<path d="M55.2 145.4C44.9333 145.4 35.7333 143.733 27.6 140.4C19.4667 137.067 12.9333 132.133 8 125.6C3.2 119.067 0.666667 111.2 0.400001 102H36.8C37.3333 107.2 39.1333 111.2 42.2 114C45.2667 116.667 49.2667 118 54.2 118C59.2667 118 63.2667 116.867 66.2 114.6C69.1333 112.2 70.6 108.933 70.6 104.8C70.6 101.333 69.4 98.4667 67 96.2C64.7333 93.9333 61.8667 92.0667 58.4 90.6C55.0667 89.1333 50.2667 87.4667 44 85.6C34.9333 82.8 27.5333 80 21.8 77.2C16.0667 74.4 11.1333 70.2667 7 64.8C2.86667 59.3333 0.800001 52.2 0.800001 43.4C0.800001 30.3333 5.53333 20.1333 15 12.8C24.4667 5.33333 36.8 1.6 52 1.6C67.4667 1.6 79.9333 5.33333 89.4 12.8C98.8667 20.1333 103.933 30.4 104.6 43.6H67.6C67.3333 39.0667 65.6667 35.5333 62.6 33C59.5333 30.3333 55.6 29 50.8 29C46.6667 29 43.3333 30.1333 40.8 32.4C38.2667 34.5333 37 37.6667 37 41.8C37 46.3333 39.1333 49.8667 43.4 52.4C47.6667 54.9333 54.3333 57.6667 63.4 60.6C72.4667 63.6667 79.8 66.6 85.4 69.4C91.1333 72.2 96.0667 76.2667 100.2 81.6C104.333 86.9333 106.4 93.8 106.4 102.2C106.4 110.2 104.333 117.467 100.2 124C96.2 130.533 90.3333 135.733 82.6 139.6C74.8667 143.467 65.7333 145.4 55.2 145.4ZM208.847 144L161.647 82V144H127.447V3.6H161.647V65.2L208.447 3.6H248.647L194.247 72.4L250.647 144H208.847ZM387.3 3.6L338.7 97.6V144H304.5V97.6L255.9 3.6H294.7L321.9 62.4L348.9 3.6H387.3ZM550.863 144L537.863 131.4C524.929 141.267 509.463 146.2 491.463 146.2C480.663 146.2 471.263 144.467 463.263 141C455.263 137.4 449.063 132.4 444.663 126C440.396 119.467 438.263 111.867 438.263 103.2C438.263 94.4 440.596 86.4667 445.263 79.4C450.063 72.2 457.196 66.3333 466.663 61.8C463.196 57.5333 460.729 53.4667 459.263 49.6C457.796 45.6 457.063 41.2667 457.063 36.6C457.063 29.9333 458.796 23.8667 462.263 18.4C465.729 12.9333 470.729 8.66666 477.263 5.59999C483.929 2.4 491.796 0.799996 500.863 0.799996C510.063 0.799996 517.863 2.46666 524.263 5.79999C530.663 9.13333 535.463 13.6 538.663 19.2C541.863 24.8 543.329 30.9333 543.063 37.6H510.863C510.996 34 510.063 31.2667 508.063 29.4C506.196 27.4 503.663 26.4 500.463 26.4C497.263 26.4 494.596 27.3333 492.463 29.2C490.329 31.0667 489.263 33.4667 489.263 36.4C489.263 39.2 490.129 42.1333 491.863 45.2C493.729 48.2667 496.596 51.8 500.463 55.8L534.663 89.2C534.929 88.5333 535.263 87.7333 535.663 86.8C536.196 85.8667 536.729 84.8 537.263 83.6L544.663 71H578.863L569.263 88.4C565.663 96.2667 561.529 103.733 556.863 110.8L590.663 144H550.863ZM493.063 118.6C501.996 118.6 509.929 116.067 516.863 111L485.663 80.8C476.063 85.7333 471.263 92.4 471.263 100.8C471.263 105.867 473.196 110.133 477.063 113.6C481.063 116.933 486.396 118.6 493.063 118.6ZM696.216 145.4C685.949 145.4 676.749 143.733 668.616 140.4C660.482 137.067 653.949 132.133 649.016 125.6C644.216 119.067 641.682 111.2 641.416 102H677.816C678.349 107.2 680.149 111.2 683.216 114C686.282 116.667 690.282 118 695.216 118C700.282 118 704.282 116.867 707.216 114.6C710.149 112.2 711.616 108.933 711.616 104.8C711.616 101.333 710.416 98.4667 708.016 96.2C705.749 93.9333 702.882 92.0667 699.416 90.6C696.082 89.1333 691.282 87.4667 685.016 85.6C675.949 82.8 668.549 80 662.816 77.2C657.082 74.4 652.149 70.2667 648.016 64.8C643.882 59.3333 641.816 52.2 641.816 43.4C641.816 30.3333 646.549 20.1333 656.016 12.8C665.482 5.33333 677.816 1.6 693.016 1.6C708.482 1.6 720.949 5.33333 730.416 12.8C739.882 20.1333 744.949 30.4 745.616 43.6H708.616C708.349 39.0667 706.682 35.5333 703.616 33C700.549 30.3333 696.616 29 691.816 29C687.682 29 684.349 30.1333 681.816 32.4C679.282 34.5333 678.016 37.6667 678.016 41.8C678.016 46.3333 680.149 49.8667 684.416 52.4C688.682 54.9333 695.349 57.6667 704.416 60.6C713.482 63.6667 720.816 66.6 726.416 69.4C732.149 72.2 737.082 76.2667 741.216 81.6C745.349 86.9333 747.416 93.8 747.416 102.2C747.416 110.2 745.349 117.467 741.216 124C737.216 130.533 731.349 135.733 723.616 139.6C715.882 143.467 706.749 145.4 696.216 145.4ZM849.863 144L802.663 82V144H768.463V3.6H802.663V65.2L849.463 3.6H889.663L835.263 72.4L891.663 144H849.863ZM942.116 3.6V144H907.916V3.6H942.116Z" fill="white"/>
</svg>
