<svg width="68" height="67" viewBox="0 0 68 67" fill="none" xmlns="http://www.w3.org/2000/svg">
<path d="M57.9999 21.1827H61.2095C62.8125 21.1827 64.35 21.8195 65.4835 22.953C66.617 24.0866 67.2539 25.624 67.2539 27.2271V39.3158C67.2539 40.9189 66.617 42.4563 65.4835 43.5898C64.35 44.7234 62.8125 45.3602 61.2095 45.3602H57.9999C57.2631 51.203 54.4194 56.5761 50.0024 60.4712C45.5854 64.3662 39.8988 66.5155 34.0097 66.5156V60.4712C38.819 60.4712 43.4312 58.5607 46.8318 55.1601C50.2324 51.7595 52.1429 47.1472 52.1429 42.338V24.2049C52.1429 19.3957 50.2324 14.7834 46.8318 11.3828C43.4312 7.98216 38.819 6.07171 34.0097 6.07171C29.2005 6.07171 24.5883 7.98216 21.1877 11.3828C17.787 14.7834 15.8766 19.3957 15.8766 24.2049V45.3602H6.81001C5.20694 45.3602 3.66953 44.7234 2.53598 43.5898C1.40244 42.4563 0.765625 40.9189 0.765625 39.3158V27.2271C0.765625 25.624 1.40244 24.0866 2.53598 22.953C3.66953 21.8195 5.20694 21.1827 6.81001 21.1827H10.0196C10.7571 15.3405 13.6011 9.96814 18.018 6.07375C22.4349 2.17937 28.1212 0.0305786 34.0097 0.0305786C39.8983 0.0305786 45.5845 2.17937 50.0014 6.07375C54.4184 9.96814 57.2624 15.3405 57.9999 21.1827ZM6.81001 27.2271V39.3158H9.8322V27.2271H6.81001ZM58.1873 27.2271V39.3158H61.2095V27.2271H58.1873ZM21.1956 44.7104L24.3992 39.5848C27.2795 41.3892 30.6109 42.3435 34.0097 42.338C37.4086 42.3435 40.7399 41.3892 43.6203 39.5848L46.8238 44.7104C42.9834 47.1165 38.5416 48.3894 34.0097 48.3824C29.4778 48.3894 25.0361 47.1165 21.1956 44.7104Z" fill="#EB4C56"/>
</svg>
