<svg width="33" height="30" viewBox="0 0 33 30" fill="none" xmlns="http://www.w3.org/2000/svg">
<path d="M7.01238 21.5268L6.10227 21.9379H6.10227L7.01238 21.5268ZM6.54842 14.7471L5.59199 14.4598H5.59199L6.54842 14.7471ZM27.1227 14.7471L28.0791 14.4598V14.4598L27.1227 14.7471ZM26.6587 21.5268L25.7486 21.1158L25.7486 21.1158L26.6587 21.5268ZM19.5584 26.1222L19.4191 25.1333L19.5584 26.1222ZM14.1127 26.1222L13.9733 27.1111H13.9733L14.1127 26.1222ZM11.5975 10.3169L11.4176 9.33465L11.5975 10.3169ZM22.0735 10.3169L21.8936 11.2992L22.0735 10.3169ZM13.1116 25.9812L13.2509 24.9923L13.1116 25.9812ZM7.13658 21.8018L8.04669 21.3908H8.04669L7.13658 21.8018ZM20.5595 25.9812L20.6988 26.97L20.5595 25.9812ZM26.5345 21.8018L27.4446 22.2129H27.4446L26.5345 21.8018ZM27.0203 14.4064L26.0639 14.6936V14.6936L27.0203 14.4064ZM6.65075 14.4064L7.60717 14.6936L7.60717 14.6936L6.65075 14.4064ZM21.084 10.6079L20.1856 10.1718L21.084 10.6079ZM19.9008 10.7586C19.66 11.2548 19.867 11.8522 20.3631 12.0931C20.8593 12.3339 21.4568 12.1269 21.6976 11.6308L19.9008 10.7586ZM12.587 10.6079L13.4854 10.1718V10.1718L12.587 10.6079ZM11.9735 11.6308C12.2143 12.1269 12.8118 12.3339 13.3079 12.0931C13.8041 11.8522 14.0111 11.2548 13.7703 10.7586L11.9735 11.6308ZM15.8233 4.6142L15.9758 5.60112L15.9758 5.60112L15.8233 4.6142ZM15.9804 4.58993L15.8279 3.60301V3.60301L15.9804 4.58993ZM17.6907 4.58993L17.5382 5.57686L17.5382 5.57686L17.6907 4.58993ZM17.8478 4.6142L18.0003 3.62728L18.0003 3.62728L17.8478 4.6142ZM21.4154 7.60908L22.3858 7.37356L21.4154 7.60908ZM12.2557 7.60908L13.2262 7.84461V7.84461L12.2557 7.60908ZM20.4202 24.9923L19.4191 25.1333L19.6977 27.1111L20.6988 26.97L20.4202 24.9923ZM14.252 25.1333L13.2509 24.9923L12.9723 26.97L13.9733 27.1111L14.252 25.1333ZM26.0639 14.6936L26.1662 15.0343L28.0791 14.4598L27.9768 14.1191L26.0639 14.6936ZM25.7486 21.1158L25.6244 21.3908L27.4446 22.2129L27.5688 21.9379L25.7486 21.1158ZM8.04669 21.3908L7.9225 21.1158L6.10227 21.9379L6.22646 22.2129L8.04669 21.3908ZM7.50485 15.0343L7.60717 14.6936L5.69432 14.1191L5.59199 14.4598L7.50485 15.0343ZM7.9225 21.1158C7.04433 19.1714 6.90049 17.0465 7.50485 15.0343L5.59199 14.4598C4.84732 16.9392 5.02824 19.5598 6.10227 21.9379L7.9225 21.1158ZM26.1662 15.0343C26.7706 17.0465 26.6267 19.1714 25.7486 21.1158L27.5688 21.9379C28.6428 19.5598 28.8238 16.9392 28.0791 14.4598L26.1662 15.0343ZM19.4191 25.1333C17.7081 25.3744 15.9629 25.3744 14.252 25.1333L13.9733 27.1111C15.8691 27.3781 17.8019 27.3781 19.6977 27.1111L19.4191 25.1333ZM11.7775 11.2992C15.1122 10.6883 18.5588 10.6883 21.8936 11.2992L22.2535 9.33465C18.6808 8.68015 14.9903 8.68015 11.4176 9.33465L11.7775 11.2992ZM13.2509 24.9923C10.8334 24.6517 8.88356 23.2437 8.04669 21.3908L6.22646 22.2129C7.38507 24.7782 9.97877 26.5483 12.9723 26.97L13.2509 24.9923ZM20.6988 26.97C23.6923 26.5483 26.286 24.7782 27.4446 22.2129L25.6244 21.3908C24.7875 23.2437 22.8376 24.6517 20.4202 24.9923L20.6988 26.97ZM21.8936 11.2992C23.9985 11.6848 25.5689 13.0453 26.0639 14.6936L27.9768 14.1191C27.2319 11.639 24.9714 9.83256 22.2535 9.33465L21.8936 11.2992ZM11.4176 9.33465C8.69972 9.83256 6.43921 11.639 5.69432 14.1191L7.60717 14.6936C8.10222 13.0453 9.67263 11.6848 11.7775 11.2992L11.4176 9.33465ZM20.1856 10.1718L19.9008 10.7586L21.6976 11.6308L21.9824 11.044L20.1856 10.1718ZM11.6887 11.044L11.9735 11.6308L13.7703 10.7586L13.4854 10.1718L11.6887 11.044ZM15.9758 5.60112L16.1328 5.57686L15.8279 3.60301L15.6708 3.62728L15.9758 5.60112ZM17.5382 5.57686L17.6953 5.60112L18.0003 3.62728L17.8432 3.60301L17.5382 5.57686ZM20.4449 7.84461C20.6332 8.62039 20.5461 9.42921 20.1856 10.1718L21.9824 11.044C22.5416 9.892 22.6856 8.60884 22.3858 7.37356L20.4449 7.84461ZM11.2852 7.37356C10.9854 8.60884 11.1295 9.892 11.6887 11.044L13.4854 10.1718C13.125 9.42921 13.0379 8.62039 13.2262 7.84461L11.2852 7.37356ZM16.1328 5.57686C16.5974 5.50507 17.0736 5.50507 17.5382 5.57686L17.8432 3.60301C17.1765 3.5 16.4946 3.5 15.8279 3.60301L16.1328 5.57686ZM22.3858 7.37356C21.9018 5.37912 20.1105 3.95334 18.0003 3.62728L17.6953 5.60112C19.1523 5.82625 20.1842 6.77049 20.4449 7.84461L22.3858 7.37356ZM13.2262 7.84461C13.4868 6.77049 14.5188 5.82625 15.9758 5.60112L15.6708 3.62728C13.5606 3.95334 11.7693 5.37912 11.2852 7.37356L13.2262 7.84461Z" fill="white"/>
</svg>
