<svg width="188" height="37" viewBox="0 0 188 37" fill="none" xmlns="http://www.w3.org/2000/svg">
<path d="M39.8048 3.51499C36.7631 2.1065 33.5107 1.08287 30.1105 0.5C29.6929 1.24721 29.205 2.25223 28.8687 3.05172C25.2541 2.51373 21.6728 2.51373 18.1247 3.05172C17.7884 2.25223 17.2894 1.24721 16.8681 0.5C13.4642 1.08287 10.2081 2.11026 7.16632 3.52245C1.03112 12.698 -0.632035 21.6457 0.199544 30.4664C4.26873 33.4739 8.21227 35.3008 12.0893 36.4963C13.0465 35.1924 13.9002 33.8064 14.6357 32.3456C13.235 31.8188 11.8934 31.1688 10.6257 30.4141C10.962 30.1675 11.291 29.9097 11.6088 29.6445C19.3406 33.2236 27.7414 33.2236 35.3809 29.6445C35.7024 29.9097 36.0313 30.1675 36.3639 30.4141C35.0925 31.1725 33.7473 31.8225 32.3465 32.3494C33.082 33.8064 33.9321 35.1962 34.893 36.5C38.7737 35.3045 42.7209 33.4776 46.7901 30.4664C47.7658 20.241 45.1233 11.3755 39.8048 3.51499ZM15.6891 25.0418C13.3681 25.0418 11.4646 22.8973 11.4646 20.2858C11.4646 17.6744 13.3274 15.5262 15.6891 15.5262C18.0508 15.5262 19.9541 17.6706 19.9135 20.2858C19.9172 22.8973 18.0508 25.0418 15.6891 25.0418ZM31.3006 25.0418C28.9796 25.0418 27.0762 22.8973 27.0762 20.2858C27.0762 17.6744 28.9389 15.5262 31.3006 15.5262C33.6622 15.5262 35.5657 17.6706 35.525 20.2858C35.525 22.8973 33.6622 25.0418 31.3006 25.0418Z" fill="#23272A"/>
<path d="M63.144 9.68388H73.2335C75.6658 9.68388 77.7206 10.0687 79.4063 10.8346C81.0875 11.6004 82.348 12.6689 83.1835 14.0363C84.0183 15.4037 84.4395 16.969 84.4395 18.7324C84.4395 20.4585 84.0035 22.0238 83.1313 23.4248C82.2591 24.8295 80.9322 25.9392 79.1473 26.7573C77.3624 27.5755 75.1517 27.9864 72.5095 27.9864H63.144V9.68388ZM72.4058 23.3352C74.0432 23.3352 75.3038 22.9205 76.183 22.0948C77.0629 21.2654 77.5028 20.1372 77.5028 18.7063C77.5028 17.38 77.1106 16.3227 76.3273 15.5306C75.544 14.7386 74.3575 14.3389 72.7717 14.3389H69.6154V23.3352H72.4058Z" fill="#23272A"/>
<path d="M99.545 27.9641C98.1478 27.598 96.8873 27.0675 95.7677 26.3689V22.0277C96.6141 22.6889 97.7485 23.2344 99.1714 23.664C100.594 24.0899 101.969 24.3029 103.3 24.3029C103.921 24.3029 104.39 24.2207 104.708 24.0563C105.026 23.8919 105.185 23.6939 105.185 23.466C105.185 23.2045 105.1 22.9878 104.926 22.8122C104.752 22.6366 104.416 22.4909 103.917 22.3676L100.813 21.6615C99.0348 21.2431 97.7742 20.664 97.0245 19.9206C96.274 19.1808 95.9004 18.2094 95.9004 17.0065C95.9004 15.994 96.2257 15.1161 96.884 14.3651C97.5378 13.6142 98.4692 13.0351 99.6776 12.6279C100.887 12.2169 102.298 12.0115 103.921 12.0115C105.369 12.0115 106.696 12.1684 107.905 12.4822C109.114 12.796 110.111 13.1958 110.906 13.6852V17.791C110.093 17.3016 109.161 16.9168 108.097 16.6254C107.036 16.3377 105.946 16.1958 104.822 16.1958C103.2 16.1958 102.391 16.476 102.391 17.0326C102.391 17.2942 102.516 17.4884 102.768 17.6192C103.019 17.7499 103.481 17.8844 104.15 18.0264L106.737 18.4971C108.426 18.7923 109.686 19.3116 110.514 20.0513C111.342 20.7911 111.756 21.8857 111.756 23.3353C111.756 24.923 111.072 26.1821 109.701 27.1161C108.33 28.0501 106.386 28.517 103.865 28.517C102.383 28.5133 100.942 28.3303 99.545 27.9641Z" fill="#23272A"/>
<path d="M117.863 27.4148C116.381 26.6825 115.261 25.6887 114.514 24.4334C113.768 23.1781 113.391 21.7659 113.391 20.1968C113.391 18.6277 113.779 17.223 114.555 15.9864C115.331 14.7498 116.469 13.7784 117.97 13.0723C119.47 12.3662 121.263 12.015 123.351 12.015C125.938 12.015 128.086 12.5642 129.793 13.6626V18.4484C129.191 18.0299 128.488 17.69 127.686 17.4285C126.884 17.167 126.027 17.0361 125.11 17.0361C123.507 17.0361 122.254 17.3313 121.348 17.9253C120.442 18.5194 119.988 19.2927 119.988 20.2528C119.988 21.1943 120.428 21.964 121.307 22.5692C122.187 23.1707 123.462 23.4733 125.136 23.4733C125.997 23.4733 126.848 23.3462 127.686 23.096C128.522 22.8419 129.243 22.5318 129.845 22.1657V26.7945C127.949 27.9452 125.75 28.5206 123.248 28.5206C121.141 28.5131 119.345 28.147 117.863 27.4148Z" fill="#23272A"/>
<path d="M136.246 27.415C134.753 26.6828 133.615 25.6815 132.831 24.4076C132.048 23.1336 131.652 21.7139 131.652 20.1448C131.652 18.5757 132.044 17.1747 132.831 15.9456C133.618 14.7164 134.749 13.7525 136.235 13.0539C137.717 12.3552 139.487 12.0078 141.538 12.0078C143.59 12.0078 145.36 12.3552 146.842 13.0539C148.324 13.7525 149.455 14.709 150.232 15.9306C151.008 17.1523 151.396 18.5533 151.396 20.1411C151.396 21.7102 151.008 23.1299 150.232 24.4038C149.455 25.6778 148.32 26.679 146.827 27.4113C145.334 28.1436 143.571 28.5097 141.535 28.5097C139.498 28.5097 137.735 28.1473 136.246 27.415ZM144.107 22.7749C144.736 22.1399 145.053 21.2992 145.053 20.2532C145.053 19.2071 144.739 18.374 144.107 17.7575C143.479 17.1373 142.621 16.8272 141.535 16.8272C140.43 16.8272 139.565 17.1373 138.933 17.7575C138.305 18.3777 137.99 19.2071 137.99 20.2532C137.99 21.2992 138.305 22.1399 138.933 22.7749C139.561 23.4101 140.43 23.7314 141.535 23.7314C142.621 23.7276 143.479 23.4101 144.107 22.7749Z" fill="#23272A"/>
<path d="M166.94 12.9791V18.628C166.283 18.1908 165.432 17.9741 164.379 17.9741C163 17.9741 161.936 18.3964 161.197 19.2407C160.454 20.085 160.084 21.4001 160.084 23.1784V27.9903H153.746V12.6915H159.955V17.5557C160.299 15.7774 160.857 14.4661 161.626 13.618C162.391 12.7737 163.381 12.3515 164.586 12.3515C165.499 12.3515 166.283 12.5607 166.94 12.9791Z" fill="#23272A"/>
<path d="M188 9.1608V27.9902H181.661V24.5643C181.125 25.8532 180.312 26.8358 179.218 27.5082C178.124 28.177 176.771 28.5133 175.168 28.5133C173.734 28.5133 172.485 28.1621 171.416 27.456C170.348 26.7499 169.524 25.7823 168.944 24.5531C168.367 23.3239 168.075 21.9342 168.075 20.38C168.057 18.7773 168.364 17.3389 168.995 16.0649C169.624 14.7909 170.514 13.7972 171.66 13.0836C172.806 12.37 174.114 12.0114 175.582 12.0114C178.601 12.0114 180.627 13.3376 181.661 15.9864V9.1608H188ZM180.715 22.6702C181.362 22.035 181.684 21.2094 181.684 20.2007C181.684 19.2256 181.369 18.4298 180.741 17.8209C180.113 17.2119 179.251 16.9055 178.169 16.9055C177.101 16.9055 176.247 17.2156 175.607 17.8358C174.968 18.456 174.65 19.2592 174.65 20.253C174.65 21.2468 174.968 22.0575 175.607 22.6851C176.247 23.3127 177.09 23.6266 178.143 23.6266C179.211 23.6229 180.068 23.3053 180.715 22.6702Z" fill="#23272A"/>
<path d="M89.7809 14.32C91.5259 14.32 92.941 13.0354 92.941 11.4507C92.941 9.86611 91.5259 8.58154 89.7809 8.58154C88.0353 8.58154 86.6208 9.86611 86.6208 11.4507C86.6208 13.0354 88.0353 14.32 89.7809 14.32Z" fill="#23272A"/>
<path d="M86.618 16.2966C88.5543 17.1409 90.9569 17.1782 92.9376 16.2966V28.0724H86.618V16.2966Z" fill="#23272A"/>
</svg>
