<svg width="138" height="31" viewBox="0 0 138 31" fill="none" xmlns="http://www.w3.org/2000/svg">
<path d="M0.515625 0.672823H10.4517C16.7938 0.672823 20.8105 5.74732 20.8105 12.7248C20.8105 16.5306 19.542 19.9136 17.0051 22.0279C15.314 23.508 12.9884 24.3537 10.0288 24.3537H0.515625V0.672823ZM9.7117 20.2307C14.2569 20.2307 15.9482 17.482 15.9482 12.8305C15.9482 8.17889 13.9398 4.90157 9.81741 4.90157H5.27222V20.3364H9.7117V20.2307ZM21.5503 15.8963C21.5503 10.8218 25.1442 6.91022 30.4293 6.91022C35.7145 6.91022 39.3083 10.8218 39.3083 15.8963C39.3083 20.9707 35.7145 24.8823 30.4293 24.8823C25.1442 24.8823 21.5503 20.865 21.5503 15.8963ZM34.6574 15.8963C34.6574 12.619 33.0719 10.2932 30.3236 10.2932C27.5753 10.2932 25.9899 12.5133 25.9899 15.8963C25.9899 19.2792 27.4697 21.3936 30.3236 21.3936C33.1776 21.3936 34.6574 19.1735 34.6574 15.8963ZM40.1539 15.8963C40.1539 10.8218 43.4307 6.91022 48.6101 6.91022C53.0496 6.91022 55.6921 9.44746 56.3264 13.1476H51.8868C51.5697 11.6676 50.407 10.5047 48.8214 10.5047C46.0732 10.5047 44.6991 12.619 44.6991 15.8963C44.6991 19.0679 45.9675 21.2879 48.7158 21.2879C50.5127 21.2879 51.7812 20.3364 52.0983 18.4335H56.5377C56.2206 22.0279 53.4724 24.8823 48.9272 24.8823C43.5364 24.7766 40.1539 20.865 40.1539 15.8963ZM68.3764 24.3537V22.3451H68.2707C67.1079 23.9309 65.8396 24.7766 63.4084 24.7766C59.6031 24.7766 57.4891 22.3451 57.4891 18.6449V7.33314H61.9285V17.905C61.9285 19.9136 62.7742 20.9707 64.7825 20.9707C66.8965 20.9707 68.165 19.385 68.165 17.1649V7.33314H72.7102V24.248H68.3764V24.3537ZM94.5905 0.778607H99.1357V5.00735H94.5905V0.778607ZM94.5905 7.33314H99.1357V24.248H94.5905V7.33314ZM100.933 24.7766H105.372C105.689 25.8337 106.746 26.6795 108.755 26.6795C111.292 26.6795 112.56 25.4109 112.56 23.1908V21.2879H112.454C111.503 22.4508 110.129 23.2965 108.015 23.2965C104.21 23.2965 100.51 20.3364 100.51 15.1562C100.51 10.0818 103.575 6.91022 107.803 6.91022C109.917 6.91022 111.503 7.75596 112.454 9.13032H112.56V7.33314H116.893V22.9794C116.893 25.4109 116.153 26.9966 114.885 28.1595C113.511 29.5339 111.292 30.0625 108.755 30.0625C104.316 30.0625 101.461 28.1595 100.933 24.7766ZM112.877 15.0506C112.877 12.619 111.502 10.5047 108.861 10.5047C106.535 10.5047 105.055 12.3019 105.055 15.1562C105.055 18.0106 106.535 19.7021 108.861 19.7021C111.714 19.7021 112.877 17.5877 112.877 15.0506ZM123.341 9.65893C124.61 7.86175 126.196 6.91022 128.415 6.91022C131.903 6.91022 134.228 9.55314 134.228 13.2533V24.3537H129.683V13.9934C129.683 12.1962 128.627 10.9275 126.724 10.9275C124.715 10.9275 123.235 12.5133 123.235 14.8391V24.4594H118.902V7.5445H123.341V9.65893ZM84.3374 10.0818C80.8492 9.34178 79.2637 8.70739 79.2637 6.80453C79.2637 5.11304 80.9549 4.05582 83.4918 4.05582C85.8172 4.05582 87.6142 5.11304 88.0369 7.33314H92.6878C92.1594 2.78725 88.7769 0.25 83.4918 0.25C78.2067 0.25 74.4014 2.68147 74.4014 7.33314C74.4014 12.3019 78.3124 13.3591 82.5405 14.3105C86.1343 15.1562 88.354 15.5791 88.354 17.905C88.354 20.125 86.24 20.9707 83.8088 20.9707C80.4265 20.9707 78.8409 19.8078 78.5238 16.9534H73.8729C74.0843 21.9222 77.6782 24.7766 84.126 24.7766C89.4111 24.7766 93.3221 22.1336 93.3221 17.2706C93.2163 12.3019 89.1997 11.139 84.3374 10.0818ZM136.131 10.5047C135.18 10.5047 134.334 9.65893 134.334 8.70739C134.334 7.75596 135.18 6.91022 136.131 6.91022C137.083 6.91022 137.929 7.75596 137.929 8.70739C137.929 9.65893 137.083 10.5047 136.131 10.5047ZM136.131 7.22736C135.286 7.22736 134.652 7.86175 134.652 8.70739C134.652 9.55314 135.286 10.1875 136.131 10.1875C136.977 10.1875 137.611 9.55314 137.611 8.70739C137.611 7.86175 136.977 7.22736 136.131 7.22736Z" fill="black"/>
<path d="M135.499 7.75638H136.133C136.345 7.75638 136.555 7.75638 136.661 7.86206C136.767 7.96774 136.873 8.07352 136.873 8.28488C136.873 8.60213 136.661 8.7078 136.555 8.81349L136.979 9.55355H136.555L136.239 8.91927H135.816V9.55355H135.499V7.75638ZM135.816 8.07352V8.60213H136.133C136.239 8.60213 136.451 8.60213 136.451 8.28488C136.451 8.28488 136.451 8.07352 136.345 8.07352H135.816Z" fill="black"/>
</svg>
