<svg width="73" height="73" viewBox="0 0 73 73" fill="none" xmlns="http://www.w3.org/2000/svg">
<path d="M33.3316 7.81796C34.2293 7.31941 35.2393 7.0578 36.2661 7.0578C37.293 7.0578 38.303 7.31941 39.2007 7.81796L61.9125 20.4326C62.3833 20.6944 62.7756 21.0774 63.0488 21.5418C63.3219 22.0062 63.4659 22.5352 63.4659 23.074V47.9617C63.4656 49.0396 63.1771 50.0978 62.6304 51.0266C62.0836 51.9555 61.2983 52.7212 60.356 53.2445L39.2007 65.0009C38.303 65.4994 37.293 65.761 36.2661 65.761C35.2393 65.761 34.2293 65.4994 33.3316 65.0009L12.1762 53.2445C11.2344 52.7215 10.4495 51.9562 9.90269 51.0279C9.35592 50.0997 9.0672 49.0421 9.06641 47.9648V23.074C9.06638 22.5352 9.21039 22.0062 9.48351 21.5418C9.75664 21.0774 10.1489 20.6944 10.6198 20.4326L33.3346 7.81796H33.3316Z" stroke="#EB4C56" stroke-width="3.45393" stroke-linecap="round" stroke-linejoin="round"/>
<path d="M22.6661 13.7415L49.8658 28.8525V39.4302M18.1328 37.3992L27.1994 42.4523" stroke="#EB4C56" stroke-width="3.45393" stroke-linecap="round" stroke-linejoin="round"/>
<path d="M9.06641 21.2969L36.2661 36.4079M36.2661 36.4079L63.4659 21.2969M36.2661 36.4079V66.6298" stroke="#EB4C56" stroke-width="3.45393" stroke-linejoin="round"/>
</svg>
