<svg width="52" height="52" viewBox="0 0 52 52" fill="none" xmlns="http://www.w3.org/2000/svg">
<path opacity="0.1" fill-rule="evenodd" clip-rule="evenodd" d="M0.615234 26.1083C0.615234 12.0877 11.9812 0.72168 26.0019 0.72168C40.0226 0.72168 51.3886 12.0877 51.3886 26.1083C51.3886 40.129 40.0226 51.495 26.0019 51.495C11.9812 51.495 0.615234 40.129 0.615234 26.1083Z" fill="#F9F9F9"/>
<path fill-rule="evenodd" clip-rule="evenodd" d="M26.0027 12.5684C22.3256 12.5684 21.8641 12.5844 20.4199 12.6502C18.9785 12.7162 17.9946 12.9444 17.1337 13.2792C16.2432 13.625 15.4878 14.0876 14.7352 14.8405C13.982 15.5931 13.5194 16.3485 13.1725 17.2387C12.8368 18.0999 12.6083 19.0841 12.5434 20.5249C12.4788 21.9691 12.4619 22.4309 12.4619 26.1081C12.4619 29.7852 12.4783 30.2453 12.5437 31.6895C12.61 33.1309 12.8382 34.1148 13.1727 34.9757C13.5189 35.8662 13.9815 36.6216 14.7343 37.3742C15.4866 38.1274 16.242 38.5911 17.132 38.9369C17.9934 39.2717 18.9776 39.4999 20.4187 39.5659C21.863 39.6317 22.3242 39.6477 26.001 39.6477C29.6785 39.6477 30.1386 39.6317 31.5828 39.5659C33.0242 39.4999 34.0092 39.2717 34.8707 38.9369C35.7609 38.5911 36.5152 38.1274 37.2675 37.3742C38.0206 36.6216 38.4832 35.8662 38.8302 34.976C39.163 34.1148 39.3915 33.1306 39.4592 31.6898C39.5241 30.2456 39.541 29.7852 39.541 26.1081C39.541 22.4309 39.5241 21.9694 39.4592 20.5252C39.3915 19.0838 39.163 18.0999 38.8302 17.239C38.4832 16.3485 38.0206 15.5931 37.2675 14.8405C36.5143 14.0873 35.7612 13.6247 34.8698 13.2792C34.0067 12.9444 33.0222 12.7162 31.5808 12.6502C30.1366 12.5844 29.6768 12.5684 25.9985 12.5684H26.0027ZM24.7881 15.0083C25.1486 15.0077 25.5508 15.0083 26.0027 15.0083C29.6178 15.0083 30.0463 15.0213 31.4738 15.0861C32.794 15.1465 33.5104 15.3671 33.9877 15.5524C34.6196 15.7978 35.07 16.0912 35.5437 16.5651C36.0175 17.039 36.3109 17.4903 36.5569 18.1221C36.7422 18.5988 36.9631 19.3153 37.0231 20.6354C37.088 22.0628 37.1021 22.4915 37.1021 26.1049C37.1021 29.7183 37.088 30.1471 37.0231 31.5744C36.9628 32.8945 36.7422 33.611 36.5569 34.0877C36.3115 34.7195 36.0175 35.1695 35.5437 35.6431C35.0698 36.117 34.6198 36.4103 33.9877 36.6557C33.511 36.8419 32.794 37.0619 31.4738 37.1223C30.0465 37.1872 29.6178 37.2013 26.0027 37.2013C22.3873 37.2013 21.9588 37.1872 20.5315 37.1223C19.2114 37.0614 18.4949 36.8408 18.0174 36.6554C17.3855 36.41 16.9342 36.1167 16.4603 35.6428C15.9864 35.1689 15.693 34.7187 15.4471 34.0866C15.2618 33.6099 15.0409 32.8934 14.9808 31.5733C14.9159 30.146 14.903 29.7172 14.903 26.1015C14.903 22.4859 14.9159 22.0594 14.9808 20.6321C15.0412 19.3119 15.2618 18.5955 15.4471 18.1182C15.6925 17.4863 15.9864 17.035 16.4603 16.5611C16.9342 16.0872 17.3855 15.7939 18.0174 15.5479C18.4946 15.3617 19.2114 15.1417 20.5315 15.0811C21.7806 15.0246 22.2646 15.0077 24.7881 15.0049V15.0083ZM33.2301 17.2564C32.3331 17.2564 31.6053 17.9834 31.6053 18.8806C31.6053 19.7777 32.3331 20.5054 33.2301 20.5054C34.1271 20.5054 34.8548 19.7777 34.8548 18.8806C34.8548 17.9836 34.1271 17.2564 33.2301 17.2564ZM26.0028 19.1548C22.1628 19.1548 19.0496 22.2681 19.0496 26.108C19.0496 29.9479 22.1628 33.0598 26.0028 33.0598C29.8427 33.0598 32.9548 29.9479 32.9548 26.108C32.9548 22.2681 29.8427 19.1548 26.0028 19.1548ZM26.0027 21.5948C28.4951 21.5948 30.5159 23.6153 30.5159 26.108C30.5159 28.6005 28.4951 30.6212 26.0027 30.6212C23.51 30.6212 21.4895 28.6005 21.4895 26.108C21.4895 23.6153 23.51 21.5948 26.0027 21.5948Z" fill="#F9F9F9"/>
</svg>
