<svg width="34" height="33" viewBox="0 0 34 33" fill="none" xmlns="http://www.w3.org/2000/svg">
<path d="M8.42488 2.66257C8.11857 1.77732 8.73053 0.848576 9.79175 0.588164L10.7525 0.352405C11.8137 0.0919932 12.9223 0.598523 13.2286 1.48377L23.2119 30.3357C23.5183 31.2209 22.9063 32.1497 21.8451 32.4101L20.8843 32.6458C19.8231 32.9063 18.7145 32.3997 18.4082 31.5145L8.42488 2.66257Z" fill="#F9F9F9"/>
<path d="M22.2642 2.14526C22.6408 1.27622 23.7879 0.823226 24.8262 1.13347L25.7663 1.41433C26.8046 1.72457 27.341 2.68057 26.9644 3.54961L14.6887 31.8733C14.3121 32.7423 13.165 33.1953 12.1267 32.8851L11.1867 32.6042C10.1483 32.294 9.61192 31.338 9.98857 30.4689L22.2642 2.14526Z" fill="#F9F9F9"/>
<path d="M9.21334 19.962C9.33453 20.4117 8.07747 21.0366 6.40562 21.3578C4.73377 21.6791 3.28022 21.575 3.15903 21.1254C3.03784 20.6758 4.2949 20.0509 5.96675 19.7296C7.63861 19.4084 9.09215 19.5124 9.21334 19.962Z" fill="#F9F9F9"/>
<path d="M0.0238113 1.02015C-0.0954589 0.57017 0.24499 0.122759 0.784226 0.0208256C1.32346 -0.0811079 1.85729 0.201037 1.97656 0.651014L7.83229 22.7432C7.95156 23.1932 7.61111 23.6406 7.07187 23.7426C6.53264 23.8445 5.99881 23.5623 5.87954 23.1124L0.0238113 1.02015Z" fill="#F9F9F9"/>
<path d="M29.2103 24.2036C29.0604 24.6483 27.6018 24.6995 25.9525 24.3179C24.3032 23.9364 23.0877 23.2666 23.2376 22.8219C23.3875 22.3772 24.8461 22.326 26.4954 22.7075C28.1447 23.0891 29.3602 23.7589 29.2103 24.2036Z" fill="#F9F9F9"/>
<path d="M31.9438 3.84497C32.0956 3.40072 32.6491 3.14155 33.1801 3.2661C33.7111 3.39065 34.0185 3.85175 33.8667 4.296L26.4144 26.107C26.2626 26.5512 25.709 26.8104 25.1781 26.6859C24.6471 26.5613 24.3396 26.1002 24.4914 25.656L31.9438 3.84497Z" fill="#F9F9F9"/>
</svg>
