<svg width="157" height="30" viewBox="0 0 157 30" fill="none" xmlns="http://www.w3.org/2000/svg">
<path fill-rule="evenodd" clip-rule="evenodd" d="M2.69653 25.5868C-0.898889 22.0266 -0.898832 16.2545 2.69663 12.6943L12.4621 3.02465C15.5015 0.0150482 20.1374 -0.450407 23.6706 1.62829C24.7635 2.27125 24.7539 3.74619 23.855 4.63624C22.9562 5.5263 21.4888 5.44969 20.2688 5.09634C18.7064 4.64387 16.9494 5.02771 15.7173 6.24782L5.95175 15.9174C4.15402 17.6976 4.154 20.5836 5.95171 22.3637C7.74945 24.1439 10.6642 24.1439 12.462 22.3637L31.9927 3.02477C35.5883 -0.535413 41.4176 -0.535428 45.0131 3.02474L54.7787 12.6943C58.3741 16.2544 58.3741 22.0266 54.7787 25.5868C51.1832 29.147 45.3538 29.147 41.7582 25.5868L38.5031 22.3637L34.4342 26.3927C31.3947 29.4023 26.7589 29.8677 23.2256 27.789C22.1327 27.1461 22.1423 25.6712 23.0413 24.7811C23.9401 23.891 25.4073 23.9676 26.6275 24.3209C28.1899 24.7734 29.9469 24.3896 31.179 23.1695L35.3643 19.0254C37.0978 17.3089 39.9084 17.3089 41.642 19.0254L45.0134 22.3637C46.8111 24.1438 49.7258 24.1438 51.5235 22.3637C53.3212 20.5836 53.3212 17.6976 51.5235 15.9174L41.758 6.24793C39.9602 4.46784 37.0456 4.46786 35.2478 6.24795L15.7171 25.587C12.1215 29.1472 6.29202 29.1472 2.69653 25.5868Z" fill="black"/>
<path d="M94.2496 5.52151C91.9873 5.52151 90.2733 6.33056 89.1421 7.94867C88.1481 6.33056 86.5712 5.52151 84.4803 5.52151C82.3207 5.52151 80.7438 6.26314 79.7154 7.78012V5.99346H75.2935V22.8487H79.7154V13.376C79.7154 10.9152 80.9837 9.56678 82.9377 9.56678C84.7544 9.56678 85.8171 10.7466 85.8171 12.7693V22.8487H90.239V13.376C90.239 10.9152 91.4046 9.56678 93.427 9.56678C95.2438 9.56678 96.3063 10.7466 96.3063 12.7693V22.8487H100.728V12.4658C100.728 8.25207 98.1917 5.52151 94.2496 5.52151Z" fill="black"/>
<path d="M117.167 7.98238C115.83 6.33056 113.979 5.52151 111.58 5.52151C109.283 5.52151 107.329 6.39799 105.684 8.11722C104.073 9.83646 103.25 11.9265 103.25 14.4211C103.25 16.9156 104.073 19.0394 105.684 20.7587C107.329 22.4779 109.283 23.3207 111.58 23.3207C113.979 23.3207 115.83 22.5116 117.167 20.8598V22.8487H121.589V5.99346H117.167V7.98238ZM109.009 17.8595C108.118 16.9494 107.672 15.8032 107.672 14.4211C107.672 13.0389 108.118 11.8928 109.009 11.0163C109.9 10.1061 111.031 9.6679 112.402 9.6679C113.773 9.6679 114.905 10.1061 115.796 11.0163C116.721 11.8928 117.167 13.0389 117.167 14.4211C117.167 15.8032 116.721 16.9494 115.796 17.8595C114.905 18.7361 113.773 19.1743 112.402 19.1743C111.031 19.1743 109.9 18.7361 109.009 17.8595Z" fill="black"/>
<path d="M137.905 8.8925V5.9934H125.051V10.0724H131.94L124.707 19.9496V22.8486H138.248V18.7696H130.637L137.905 8.8925Z" fill="black"/>
<path d="M156.737 16.2077C156.84 15.5673 156.908 14.9942 156.908 14.4211C156.908 11.8928 156.086 9.80275 154.44 8.08351C152.829 6.36427 150.738 5.52151 148.236 5.52151C145.596 5.52151 143.403 6.36427 141.723 8.08351C140.043 9.76904 139.186 11.8928 139.186 14.4211C139.186 16.9831 140.043 19.1069 141.757 20.7923C143.471 22.4779 145.734 23.3207 148.579 23.3207C151.869 23.3207 154.372 22.1071 156.051 19.7136L152.487 17.691C151.629 18.8034 150.327 19.3765 148.647 19.3765C146.008 19.3765 144.397 18.3315 143.814 16.2077H156.737ZM143.746 12.8367C144.259 10.6792 145.87 9.43193 148.236 9.43193C150.258 9.43193 151.972 10.5444 152.487 12.8367H143.746Z" fill="black"/>
</svg>
