<svg width="56" height="60" viewBox="0 0 56 60" fill="none" xmlns="http://www.w3.org/2000/svg">
<path d="M27.9297 2.36129C28.3039 1.89297 28.7674 1.50354 29.2932 1.21554C29.8189 0.927534 30.3966 0.746677 30.9928 0.683437C31.5889 0.620196 32.1917 0.675827 32.7662 0.84711C33.3407 1.01839 33.8756 1.30193 34.3397 1.6813L49.1273 13.758C49.9406 14.422 50.4981 15.3476 50.7048 16.377C50.9115 17.4063 50.7545 18.4755 50.2607 19.4019C48.9678 19.0068 47.6233 18.8066 46.2714 18.8081H44.9114L46.2623 17.2667L38.4741 10.9065L32.0504 18.8126H26.207L34.9608 8.0415L31.4702 5.19006L20.5993 18.8081H14.7967L27.9297 2.36129ZM39.4714 41.4745C38.8703 41.4745 38.2937 41.7133 37.8687 42.1384C37.4436 42.5635 37.2048 43.14 37.2048 43.7411C37.2048 44.3423 37.4436 44.9188 37.8687 45.3439C38.2937 45.769 38.8703 46.0078 39.4714 46.0078H44.0047C44.6059 46.0078 45.1824 45.769 45.6075 45.3439C46.0326 44.9188 46.2714 44.3423 46.2714 43.7411C46.2714 43.14 46.0326 42.5635 45.6075 42.1384C45.1824 41.7133 44.6059 41.4745 44.0047 41.4745H39.4714ZM5.47177 21.0747C5.47177 20.4736 5.71057 19.897 6.13565 19.4719C6.56073 19.0469 7.13726 18.8081 7.73841 18.8081H10.268L13.8719 14.2748H7.73841C5.93496 14.2748 4.20537 14.9912 2.93013 16.2664C1.6549 17.5417 0.938477 19.2712 0.938477 21.0747V48.2744C0.938477 51.2802 2.13251 54.1628 4.2579 56.2882C6.38329 58.4136 9.26594 59.6077 12.2717 59.6077H46.2714C48.676 59.6077 50.9821 58.6524 52.6824 56.9521C54.3827 55.2518 55.3379 52.9457 55.3379 50.5411V32.4079C55.3379 30.0033 54.3827 27.6972 52.6824 25.9969C50.9821 24.2966 48.676 23.3413 46.2714 23.3413H7.73841C7.13726 23.3413 6.56073 23.1025 6.13565 22.6775C5.71057 22.2524 5.47177 21.6759 5.47177 21.0747ZM5.47177 48.2744V27.4893C6.17896 27.7386 6.94508 27.8746 7.73841 27.8746H46.2714C47.4737 27.8746 48.6267 28.3522 49.4769 29.2024C50.327 30.0526 50.8046 31.2056 50.8046 32.4079V50.5411C50.8046 51.7434 50.327 52.8964 49.4769 53.7466C48.6267 54.5967 47.4737 55.0744 46.2714 55.0744H12.2717C10.4682 55.0744 8.73865 54.3579 7.46342 53.0827C6.18818 51.8075 5.47177 50.0779 5.47177 48.2744Z" fill="#EB4C56"/>
</svg>
