<svg width="34" height="30" viewBox="0 0 34 30" fill="none" xmlns="http://www.w3.org/2000/svg">
<path d="M5.39431 17.5745L6.36102 17.324L5.39431 17.5745ZM5.39431 10.9689L6.36102 11.2194L5.39431 10.9689ZM26.0832 10.9689L27.05 10.7184L26.0832 10.9689ZM26.0832 17.5745L27.05 17.8249L26.0832 17.5745ZM19.3869 23.6368L19.1795 22.6599L19.3869 23.6368ZM12.0906 23.6368L11.8832 24.6136L12.0906 23.6368ZM12.0906 4.90656L11.8832 3.92971L12.0906 4.90656ZM19.3869 4.90656L19.5944 3.92971L19.3869 4.90656ZM28.3688 27.0531C28.7777 27.4232 29.4092 27.3918 29.7793 26.983C30.1495 26.5741 30.1181 25.9426 29.7093 25.5724L28.3688 27.0531ZM6.36102 17.324C5.84073 15.3159 5.84073 13.2275 6.36102 11.2194L4.4276 10.7184C3.82218 13.0551 3.82218 15.4883 4.4276 17.8249L6.36102 17.324ZM25.1165 11.2194C25.6368 13.2275 25.6368 15.3159 25.1165 17.324L27.05 17.8249C27.6554 15.4883 27.6554 13.0551 27.05 10.7184L25.1165 11.2194ZM19.1795 22.6599C16.9167 23.1405 14.5608 23.1405 12.2981 22.6599L11.8832 24.6136C14.4195 25.1523 17.0581 25.1523 19.5944 24.6136L19.1795 22.6599ZM12.2981 5.88341C14.5608 5.40289 16.9167 5.40289 19.1795 5.88341L19.5944 3.92971C17.0581 3.3911 14.4195 3.3911 11.8832 3.92971L12.2981 5.88341ZM12.2981 22.6599C9.30269 22.0238 7.03489 19.9248 6.36102 17.324L4.4276 17.8249C5.31249 21.2402 8.23332 23.8386 11.8832 24.6136L12.2981 22.6599ZM19.5944 24.6136C23.2442 23.8386 26.1651 21.2402 27.05 17.8249L25.1165 17.324C24.4427 19.9248 22.1749 22.0238 19.1795 22.6599L19.5944 24.6136ZM19.1795 5.88341C22.1749 6.51951 24.4427 8.61856 25.1165 11.2194L27.05 10.7184C26.1651 7.30315 23.2442 4.7048 19.5944 3.92971L19.1795 5.88341ZM11.8832 3.92971C8.23332 4.70479 5.31249 7.30314 4.4276 10.7184L6.36102 11.2194C7.03489 8.61856 9.30269 6.51951 12.2981 5.88341L11.8832 3.92971ZM23.4687 22.6169L28.3688 27.0531L29.7093 25.5724L24.8092 21.1362L23.4687 22.6169Z" fill="white"/>
</svg>
