<svg width="169" height="23" viewBox="0 0 169 23" fill="none" xmlns="http://www.w3.org/2000/svg">
<path d="M144.734 9.32578V22.6332H148.989V13.7616H164.55V22.6332H168.805V9.32578H144.734ZM148.503 5.0115H164.915C167.225 4.58614 168.866 2.52015 169.353 0.575684H144.065C144.551 2.52015 146.253 4.52538 148.503 5.0115ZM131.786 22.6332C133.914 21.7217 135.069 20.1419 135.555 18.3189H116.407V0.636448H112.091V22.6332H131.786ZM80.178 4.95073H95.3748C97.6847 4.28232 99.5691 2.52015 100.055 0.636448H75.9837V13.6401H95.6787V18.1974H80.2388C77.8073 18.8658 75.7406 20.5065 74.7072 22.6332H99.9338V9.32578H80.2388L80.178 4.95073ZM42.7333 5.0115H59.1457C61.4557 4.58614 63.1577 2.52015 63.5832 0.575684H38.235C38.7213 2.52015 40.4234 4.52538 42.7333 5.0115ZM42.7333 13.7008H59.1457C61.4557 13.2755 63.1577 11.2095 63.5832 9.26501H38.235C38.7213 11.2095 40.4234 13.2147 42.7333 13.7008ZM42.7333 22.6332H59.1457C61.4557 22.2079 63.1577 20.1419 63.5832 18.1974H38.235C38.7213 20.1419 40.4234 22.2079 42.7333 22.6332Z" fill="#5E5E5E"/>
<path d="M0 0.636448C0.486296 2.58091 2.18833 4.52538 4.43745 5.01149H11.3672L11.7319 5.13302V22.5724H16.0478V5.13302L16.4125 5.01149H23.3422C25.6521 4.40385 27.2934 2.58091 27.7797 0.636448V0.575684L0 0.636448Z" fill="#5E5E5E"/>
</svg>
