<svg width="947" height="34" viewBox="0 0 947 34" fill="none" xmlns="http://www.w3.org/2000/svg">
<path d="M30.84 3.94L25.35 25H19.14L15.78 11.14L12.3 25H6.09L0.75 3.94H6.24L9.27 19.27L13.02 3.94H18.66L22.26 19.27L25.32 3.94H30.84ZM49.1927 16.36C49.1927 16.84 49.1627 17.34 49.1027 17.86H37.4927C37.5727 18.9 37.9027 19.7 38.4827 20.26C39.0827 20.8 39.8127 21.07 40.6727 21.07C41.9527 21.07 42.8427 20.53 43.3427 19.45H48.8027C48.5227 20.55 48.0127 21.54 47.2727 22.42C46.5527 23.3 45.6427 23.99 44.5427 24.49C43.4427 24.99 42.2127 25.24 40.8527 25.24C39.2127 25.24 37.7527 24.89 36.4727 24.19C35.1927 23.49 34.1927 22.49 33.4727 21.19C32.7527 19.89 32.3927 18.37 32.3927 16.63C32.3927 14.89 32.7427 13.37 33.4427 12.07C34.1627 10.77 35.1627 9.77 36.4427 9.07C37.7227 8.37 39.1927 8.02 40.8527 8.02C42.4727 8.02 43.9127 8.36 45.1727 9.04C46.4327 9.72 47.4127 10.69 48.1127 11.95C48.8327 13.21 49.1927 14.68 49.1927 16.36ZM43.9427 15.01C43.9427 14.13 43.6427 13.43 43.0427 12.91C42.4427 12.39 41.6927 12.13 40.7927 12.13C39.9327 12.13 39.2027 12.38 38.6027 12.88C38.0227 13.38 37.6627 14.09 37.5227 15.01H43.9427ZM63.3865 10.63C63.8665 9.85 64.5565 9.22 65.4565 8.74C66.3565 8.26 67.3865 8.02 68.5465 8.02C69.9265 8.02 71.1765 8.37 72.2965 9.07C73.4165 9.77 74.2965 10.77 74.9365 12.07C75.5965 13.37 75.9265 14.88 75.9265 16.6C75.9265 18.32 75.5965 19.84 74.9365 21.16C74.2965 22.46 73.4165 23.47 72.2965 24.19C71.1765 24.89 69.9265 25.24 68.5465 25.24C67.3665 25.24 66.3365 25.01 65.4565 24.55C64.5765 24.07 63.8865 23.44 63.3865 22.66V25H58.2565V2.8H63.3865V10.63ZM70.7065 16.6C70.7065 15.32 70.3465 14.32 69.6265 13.6C68.9265 12.86 68.0565 12.49 67.0165 12.49C65.9965 12.49 65.1265 12.86 64.4065 13.6C63.7065 14.34 63.3565 15.35 63.3565 16.63C63.3565 17.91 63.7065 18.92 64.4065 19.66C65.1265 20.4 65.9965 20.77 67.0165 20.77C68.0365 20.77 68.9065 20.4 69.6265 19.66C70.3465 18.9 70.7065 17.88 70.7065 16.6ZM95.1478 8.26V25H90.0178V22.72C89.4978 23.46 88.7878 24.06 87.8878 24.52C87.0078 24.96 86.0278 25.18 84.9478 25.18C83.6678 25.18 82.5378 24.9 81.5578 24.34C80.5778 23.76 79.8178 22.93 79.2778 21.85C78.7378 20.77 78.4678 19.5 78.4678 18.04V8.26H83.5678V17.35C83.5678 18.47 83.8578 19.34 84.4378 19.96C85.0178 20.58 85.7978 20.89 86.7778 20.89C87.7778 20.89 88.5678 20.58 89.1478 19.96C89.7278 19.34 90.0178 18.47 90.0178 17.35V8.26H95.1478ZM101.413 6.52C100.513 6.52 99.7727 6.26 99.1927 5.74C98.6327 5.2 98.3527 4.54 98.3527 3.76C98.3527 2.96 98.6327 2.3 99.1927 1.78C99.7727 1.24 100.513 0.969998 101.413 0.969998C102.293 0.969998 103.013 1.24 103.573 1.78C104.153 2.3 104.443 2.96 104.443 3.76C104.443 4.54 104.153 5.2 103.573 5.74C103.013 6.26 102.293 6.52 101.413 6.52ZM103.963 8.26V25H98.8327V8.26H103.963ZM112.81 2.8V25H107.68V2.8H112.81ZM115.508 16.6C115.508 14.88 115.828 13.37 116.468 12.07C117.128 10.77 118.018 9.77 119.138 9.07C120.258 8.37 121.508 8.02 122.888 8.02C123.988 8.02 124.988 8.25 125.888 8.71C126.808 9.17 127.528 9.79 128.048 10.57V2.8H133.178V25H128.048V22.6C127.568 23.4 126.878 24.04 125.978 24.52C125.098 25 124.068 25.24 122.888 25.24C121.508 25.24 120.258 24.89 119.138 24.19C118.018 23.47 117.128 22.46 116.468 21.16C115.828 19.84 115.508 18.32 115.508 16.6ZM128.048 16.63C128.048 15.35 127.688 14.34 126.968 13.6C126.268 12.86 125.408 12.49 124.388 12.49C123.368 12.49 122.498 12.86 121.778 13.6C121.078 14.32 120.728 15.32 120.728 16.6C120.728 17.88 121.078 18.9 121.778 19.66C122.498 20.4 123.368 20.77 124.388 20.77C125.408 20.77 126.268 20.4 126.968 19.66C127.688 18.92 128.048 17.91 128.048 16.63ZM150.867 25.24C149.227 25.24 147.747 24.89 146.427 24.19C145.127 23.49 144.097 22.49 143.337 21.19C142.597 19.89 142.227 18.37 142.227 16.63C142.227 14.91 142.607 13.4 143.367 12.1C144.127 10.78 145.167 9.77 146.487 9.07C147.807 8.37 149.287 8.02 150.927 8.02C152.567 8.02 154.047 8.37 155.367 9.07C156.687 9.77 157.727 10.78 158.487 12.1C159.247 13.4 159.627 14.91 159.627 16.63C159.627 18.35 159.237 19.87 158.457 21.19C157.697 22.49 156.647 23.49 155.307 24.19C153.987 24.89 152.507 25.24 150.867 25.24ZM150.867 20.8C151.847 20.8 152.677 20.44 153.357 19.72C154.057 19 154.407 17.97 154.407 16.63C154.407 15.29 154.067 14.26 153.387 13.54C152.727 12.82 151.907 12.46 150.927 12.46C149.927 12.46 149.097 12.82 148.437 13.54C147.777 14.24 147.447 15.27 147.447 16.63C147.447 17.97 147.767 19 148.407 19.72C149.067 20.44 149.887 20.8 150.867 20.8ZM172.548 8.08C174.508 8.08 176.068 8.72 177.228 10C178.408 11.26 178.998 13 178.998 15.22V25H173.898V15.91C173.898 14.79 173.608 13.92 173.028 13.3C172.448 12.68 171.668 12.37 170.688 12.37C169.708 12.37 168.928 12.68 168.348 13.3C167.768 13.92 167.478 14.79 167.478 15.91V25H162.348V8.26H167.478V10.48C167.998 9.74 168.698 9.16 169.578 8.74C170.458 8.3 171.448 8.08 172.548 8.08ZM187.693 2.8V25H182.563V2.8H187.693ZM208.511 8.26L198.011 32.95H192.491L196.331 24.43L189.521 8.26H195.251L199.121 18.73L202.961 8.26H208.511ZM226.053 20.65V25H223.443C221.583 25 220.133 24.55 219.093 23.65C218.053 22.73 217.533 21.24 217.533 19.18V12.52H215.493V8.26H217.533V4.18H222.663V8.26H226.023V12.52H222.663V19.24C222.663 19.74 222.783 20.1 223.023 20.32C223.263 20.54 223.663 20.65 224.223 20.65H226.053ZM239.201 8.08C241.121 8.08 242.661 8.72 243.821 10C244.981 11.26 245.561 13 245.561 15.22V25H240.461V15.91C240.461 14.79 240.171 13.92 239.591 13.3C239.011 12.68 238.231 12.37 237.251 12.37C236.271 12.37 235.491 12.68 234.911 13.3C234.331 13.92 234.041 14.79 234.041 15.91V25H228.911V2.8H234.041V10.51C234.561 9.77 235.271 9.18 236.171 8.74C237.071 8.3 238.081 8.08 239.201 8.08ZM264.906 16.36C264.906 16.84 264.876 17.34 264.816 17.86H253.206C253.286 18.9 253.616 19.7 254.196 20.26C254.796 20.8 255.526 21.07 256.386 21.07C257.666 21.07 258.556 20.53 259.056 19.45H264.516C264.236 20.55 263.726 21.54 262.986 22.42C262.266 23.3 261.356 23.99 260.256 24.49C259.156 24.99 257.926 25.24 256.566 25.24C254.926 25.24 253.466 24.89 252.186 24.19C250.906 23.49 249.906 22.49 249.186 21.19C248.466 19.89 248.106 18.37 248.106 16.63C248.106 14.89 248.456 13.37 249.156 12.07C249.876 10.77 250.876 9.77 252.156 9.07C253.436 8.37 254.906 8.02 256.566 8.02C258.186 8.02 259.626 8.36 260.886 9.04C262.146 9.72 263.126 10.69 263.826 11.95C264.546 13.21 264.906 14.68 264.906 16.36ZM259.656 15.01C259.656 14.13 259.356 13.43 258.756 12.91C258.156 12.39 257.406 12.13 256.506 12.13C255.646 12.13 254.916 12.38 254.316 12.88C253.736 13.38 253.376 14.09 253.236 15.01H259.656ZM279.099 10.63C279.579 9.85 280.269 9.22 281.169 8.74C282.069 8.26 283.099 8.02 284.259 8.02C285.639 8.02 286.889 8.37 288.009 9.07C289.129 9.77 290.009 10.77 290.649 12.07C291.309 13.37 291.639 14.88 291.639 16.6C291.639 18.32 291.309 19.84 290.649 21.16C290.009 22.46 289.129 23.47 288.009 24.19C286.889 24.89 285.639 25.24 284.259 25.24C283.079 25.24 282.049 25.01 281.169 24.55C280.289 24.07 279.599 23.44 279.099 22.66V25H273.969V2.8H279.099V10.63ZM286.419 16.6C286.419 15.32 286.059 14.32 285.339 13.6C284.639 12.86 283.769 12.49 282.729 12.49C281.709 12.49 280.839 12.86 280.119 13.6C279.419 14.34 279.069 15.35 279.069 16.63C279.069 17.91 279.419 18.92 280.119 19.66C280.839 20.4 281.709 20.77 282.729 20.77C283.749 20.77 284.619 20.4 285.339 19.66C286.059 18.9 286.419 17.88 286.419 16.6ZM310.111 16.36C310.111 16.84 310.081 17.34 310.021 17.86H298.411C298.491 18.9 298.821 19.7 299.401 20.26C300.001 20.8 300.731 21.07 301.591 21.07C302.871 21.07 303.761 20.53 304.261 19.45H309.721C309.441 20.55 308.931 21.54 308.191 22.42C307.471 23.3 306.561 23.99 305.461 24.49C304.361 24.99 303.131 25.24 301.771 25.24C300.131 25.24 298.671 24.89 297.391 24.19C296.111 23.49 295.111 22.49 294.391 21.19C293.671 19.89 293.311 18.37 293.311 16.63C293.311 14.89 293.661 13.37 294.361 12.07C295.081 10.77 296.081 9.77 297.361 9.07C298.641 8.37 300.111 8.02 301.771 8.02C303.391 8.02 304.831 8.36 306.091 9.04C307.351 9.72 308.331 10.69 309.031 11.95C309.751 13.21 310.111 14.68 310.111 16.36ZM304.861 15.01C304.861 14.13 304.561 13.43 303.961 12.91C303.361 12.39 302.611 12.13 301.711 12.13C300.851 12.13 300.121 12.38 299.521 12.88C298.941 13.38 298.581 14.09 298.441 15.01H304.861ZM319.627 25.24C318.167 25.24 316.867 24.99 315.727 24.49C314.587 23.99 313.687 23.31 313.027 22.45C312.367 21.57 311.997 20.59 311.917 19.51H316.987C317.047 20.09 317.317 20.56 317.797 20.92C318.277 21.28 318.867 21.46 319.567 21.46C320.207 21.46 320.697 21.34 321.037 21.1C321.397 20.84 321.577 20.51 321.577 20.11C321.577 19.63 321.327 19.28 320.827 19.06C320.327 18.82 319.517 18.56 318.397 18.28C317.197 18 316.197 17.71 315.397 17.41C314.597 17.09 313.907 16.6 313.327 15.94C312.747 15.26 312.457 14.35 312.457 13.21C312.457 12.25 312.717 11.38 313.237 10.6C313.777 9.8 314.557 9.17 315.577 8.71C316.617 8.25 317.847 8.02 319.267 8.02C321.367 8.02 323.017 8.54 324.217 9.58C325.437 10.62 326.137 12 326.317 13.72H321.577C321.497 13.14 321.237 12.68 320.797 12.34C320.377 12 319.817 11.83 319.117 11.83C318.517 11.83 318.057 11.95 317.737 12.19C317.417 12.41 317.257 12.72 317.257 13.12C317.257 13.6 317.507 13.96 318.007 14.2C318.527 14.44 319.327 14.68 320.407 14.92C321.647 15.24 322.657 15.56 323.437 15.88C324.217 16.18 324.897 16.68 325.477 17.38C326.077 18.06 326.387 18.98 326.407 20.14C326.407 21.12 326.127 22 325.567 22.78C325.027 23.54 324.237 24.14 323.197 24.58C322.177 25.02 320.987 25.24 319.627 25.24ZM338.876 20.65V25H336.266C334.406 25 332.956 24.55 331.916 23.65C330.876 22.73 330.356 21.24 330.356 19.18V12.52H328.316V8.26H330.356V4.18H335.486V8.26H338.846V12.52H335.486V19.24C335.486 19.74 335.606 20.1 335.846 20.32C336.086 20.54 336.486 20.65 337.046 20.65H338.876ZM347.253 20.26L343.923 28.87H340.653L342.393 20.26H347.253ZM355.684 16.63C355.684 14.89 356.034 13.37 356.734 12.07C357.454 10.77 358.444 9.77 359.704 9.07C360.984 8.37 362.444 8.02 364.084 8.02C366.184 8.02 367.934 8.57 369.334 9.67C370.754 10.77 371.684 12.32 372.124 14.32H366.664C366.204 13.04 365.314 12.4 363.994 12.4C363.054 12.4 362.304 12.77 361.744 13.51C361.184 14.23 360.904 15.27 360.904 16.63C360.904 17.99 361.184 19.04 361.744 19.78C362.304 20.5 363.054 20.86 363.994 20.86C365.314 20.86 366.204 20.22 366.664 18.94H372.124C371.684 20.9 370.754 22.44 369.334 23.56C367.914 24.68 366.164 25.24 364.084 25.24C362.444 25.24 360.984 24.89 359.704 24.19C358.444 23.49 357.454 22.49 356.734 21.19C356.034 19.89 355.684 18.37 355.684 16.63ZM391.398 8.26V25H386.268V22.72C385.748 23.46 385.038 24.06 384.138 24.52C383.258 24.96 382.278 25.18 381.198 25.18C379.918 25.18 378.788 24.9 377.808 24.34C376.828 23.76 376.068 22.93 375.528 21.85C374.988 20.77 374.718 19.5 374.718 18.04V8.26H379.818V17.35C379.818 18.47 380.108 19.34 380.688 19.96C381.268 20.58 382.048 20.89 383.028 20.89C384.028 20.89 384.818 20.58 385.398 19.96C385.978 19.34 386.268 18.47 386.268 17.35V8.26H391.398ZM401.893 25.24C400.433 25.24 399.133 24.99 397.993 24.49C396.853 23.99 395.953 23.31 395.293 22.45C394.633 21.57 394.263 20.59 394.183 19.51H399.253C399.313 20.09 399.583 20.56 400.063 20.92C400.543 21.28 401.133 21.46 401.833 21.46C402.473 21.46 402.963 21.34 403.303 21.1C403.663 20.84 403.843 20.51 403.843 20.11C403.843 19.63 403.593 19.28 403.093 19.06C402.593 18.82 401.783 18.56 400.663 18.28C399.463 18 398.463 17.71 397.663 17.41C396.863 17.09 396.173 16.6 395.593 15.94C395.013 15.26 394.723 14.35 394.723 13.21C394.723 12.25 394.983 11.38 395.503 10.6C396.043 9.8 396.823 9.17 397.843 8.71C398.883 8.25 400.113 8.02 401.533 8.02C403.633 8.02 405.283 8.54 406.483 9.58C407.703 10.62 408.403 12 408.583 13.72H403.843C403.763 13.14 403.503 12.68 403.063 12.34C402.643 12 402.083 11.83 401.383 11.83C400.783 11.83 400.323 11.95 400.003 12.19C399.683 12.41 399.523 12.72 399.523 13.12C399.523 13.6 399.773 13.96 400.273 14.2C400.793 14.44 401.593 14.68 402.673 14.92C403.913 15.24 404.923 15.56 405.703 15.88C406.483 16.18 407.163 16.68 407.743 17.38C408.343 18.06 408.653 18.98 408.673 20.14C408.673 21.12 408.393 22 407.833 22.78C407.293 23.54 406.503 24.14 405.463 24.58C404.443 25.02 403.253 25.24 401.893 25.24ZM421.141 20.65V25H418.531C416.671 25 415.221 24.55 414.181 23.65C413.141 22.73 412.621 21.24 412.621 19.18V12.52H410.581V8.26H412.621V4.18H417.751V8.26H421.111V12.52H417.751V19.24C417.751 19.74 417.871 20.1 418.111 20.32C418.351 20.54 418.751 20.65 419.311 20.65H421.141ZM431.619 25.24C429.979 25.24 428.499 24.89 427.179 24.19C425.879 23.49 424.849 22.49 424.089 21.19C423.349 19.89 422.979 18.37 422.979 16.63C422.979 14.91 423.359 13.4 424.119 12.1C424.879 10.78 425.919 9.77 427.239 9.07C428.559 8.37 430.039 8.02 431.679 8.02C433.319 8.02 434.799 8.37 436.119 9.07C437.439 9.77 438.479 10.78 439.239 12.1C439.999 13.4 440.379 14.91 440.379 16.63C440.379 18.35 439.989 19.87 439.209 21.19C438.449 22.49 437.399 23.49 436.059 24.19C434.739 24.89 433.259 25.24 431.619 25.24ZM431.619 20.8C432.599 20.8 433.429 20.44 434.109 19.72C434.809 19 435.159 17.97 435.159 16.63C435.159 15.29 434.819 14.26 434.139 13.54C433.479 12.82 432.659 12.46 431.679 12.46C430.679 12.46 429.849 12.82 429.189 13.54C428.529 14.24 428.199 15.27 428.199 16.63C428.199 17.97 428.519 19 429.159 19.72C429.819 20.44 430.639 20.8 431.619 20.8ZM464.46 8.08C466.54 8.08 468.19 8.71 469.41 9.97C470.65 11.23 471.27 12.98 471.27 15.22V25H466.17V15.91C466.17 14.83 465.88 14 465.3 13.42C464.74 12.82 463.96 12.52 462.96 12.52C461.96 12.52 461.17 12.82 460.59 13.42C460.03 14 459.75 14.83 459.75 15.91V25H454.65V15.91C454.65 14.83 454.36 14 453.78 13.42C453.22 12.82 452.44 12.52 451.44 12.52C450.44 12.52 449.65 12.82 449.07 13.42C448.51 14 448.23 14.83 448.23 15.91V25H443.1V8.26H448.23V10.36C448.75 9.66 449.43 9.11 450.27 8.71C451.11 8.29 452.06 8.08 453.12 8.08C454.38 8.08 455.5 8.35 456.48 8.89C457.48 9.43 458.26 10.2 458.82 11.2C459.4 10.28 460.19 9.53 461.19 8.95C462.19 8.37 463.28 8.08 464.46 8.08ZM477.438 6.52C476.538 6.52 475.798 6.26 475.218 5.74C474.658 5.2 474.378 4.54 474.378 3.76C474.378 2.96 474.658 2.3 475.218 1.78C475.798 1.24 476.538 0.969998 477.438 0.969998C478.318 0.969998 479.038 1.24 479.598 1.78C480.178 2.3 480.468 2.96 480.468 3.76C480.468 4.54 480.178 5.2 479.598 5.74C479.038 6.26 478.318 6.52 477.438 6.52ZM479.988 8.26V25H474.858V8.26H479.988ZM488.506 20.77H495.766V25H482.776V20.92L489.736 12.49H482.836V8.26H495.616V12.34L488.506 20.77ZM514.369 16.36C514.369 16.84 514.339 17.34 514.279 17.86H502.669C502.749 18.9 503.079 19.7 503.659 20.26C504.259 20.8 504.989 21.07 505.849 21.07C507.129 21.07 508.019 20.53 508.519 19.45H513.979C513.699 20.55 513.189 21.54 512.449 22.42C511.729 23.3 510.819 23.99 509.719 24.49C508.619 24.99 507.389 25.24 506.029 25.24C504.389 25.24 502.929 24.89 501.649 24.19C500.369 23.49 499.369 22.49 498.649 21.19C497.929 19.89 497.569 18.37 497.569 16.63C497.569 14.89 497.919 13.37 498.619 12.07C499.339 10.77 500.339 9.77 501.619 9.07C502.899 8.37 504.369 8.02 506.029 8.02C507.649 8.02 509.089 8.36 510.349 9.04C511.609 9.72 512.589 10.69 513.289 11.95C514.009 13.21 514.369 14.68 514.369 16.36ZM509.119 15.01C509.119 14.13 508.819 13.43 508.219 12.91C507.619 12.39 506.869 12.13 505.969 12.13C505.109 12.13 504.379 12.38 503.779 12.88C503.199 13.38 502.839 14.09 502.699 15.01H509.119ZM516.055 16.6C516.055 14.88 516.375 13.37 517.015 12.07C517.675 10.77 518.565 9.77 519.685 9.07C520.805 8.37 522.055 8.02 523.435 8.02C524.535 8.02 525.535 8.25 526.435 8.71C527.355 9.17 528.075 9.79 528.595 10.57V2.8H533.725V25H528.595V22.6C528.115 23.4 527.425 24.04 526.525 24.52C525.645 25 524.615 25.24 523.435 25.24C522.055 25.24 520.805 24.89 519.685 24.19C518.565 23.47 517.675 22.46 517.015 21.16C516.375 19.84 516.055 18.32 516.055 16.6ZM528.595 16.63C528.595 15.35 528.235 14.34 527.515 13.6C526.815 12.86 525.955 12.49 524.935 12.49C523.915 12.49 523.045 12.86 522.325 13.6C521.625 14.32 521.275 15.32 521.275 16.6C521.275 17.88 521.625 18.9 522.325 19.66C523.045 20.4 523.915 20.77 524.935 20.77C525.955 20.77 526.815 20.4 527.515 19.66C528.235 18.92 528.595 17.91 528.595 16.63ZM553.124 20.65V25H550.514C548.654 25 547.204 24.55 546.164 23.65C545.124 22.73 544.604 21.24 544.604 19.18V12.52H542.564V8.26H544.604V4.18H549.734V8.26H553.094V12.52H549.734V19.24C549.734 19.74 549.854 20.1 550.094 20.32C550.334 20.54 550.734 20.65 551.294 20.65H553.124ZM563.601 25.24C561.961 25.24 560.481 24.89 559.161 24.19C557.861 23.49 556.831 22.49 556.071 21.19C555.331 19.89 554.961 18.37 554.961 16.63C554.961 14.91 555.341 13.4 556.101 12.1C556.861 10.78 557.901 9.77 559.221 9.07C560.541 8.37 562.021 8.02 563.661 8.02C565.301 8.02 566.781 8.37 568.101 9.07C569.421 9.77 570.461 10.78 571.221 12.1C571.981 13.4 572.361 14.91 572.361 16.63C572.361 18.35 571.971 19.87 571.191 21.19C570.431 22.49 569.381 23.49 568.041 24.19C566.721 24.89 565.241 25.24 563.601 25.24ZM563.601 20.8C564.581 20.8 565.411 20.44 566.091 19.72C566.791 19 567.141 17.97 567.141 16.63C567.141 15.29 566.801 14.26 566.121 13.54C565.461 12.82 564.641 12.46 563.661 12.46C562.661 12.46 561.831 12.82 561.171 13.54C560.511 14.24 560.181 15.27 560.181 16.63C560.181 17.97 560.501 19 561.141 19.72C561.801 20.44 562.621 20.8 563.601 20.8ZM598.54 8.26L588.04 32.95H582.52L586.36 24.43L579.55 8.26H585.28L589.15 18.73L592.99 8.26H598.54ZM608.015 25.24C606.375 25.24 604.895 24.89 603.575 24.19C602.275 23.49 601.245 22.49 600.485 21.19C599.745 19.89 599.375 18.37 599.375 16.63C599.375 14.91 599.755 13.4 600.515 12.1C601.275 10.78 602.315 9.77 603.635 9.07C604.955 8.37 606.435 8.02 608.075 8.02C609.715 8.02 611.195 8.37 612.515 9.07C613.835 9.77 614.875 10.78 615.635 12.1C616.395 13.4 616.775 14.91 616.775 16.63C616.775 18.35 616.385 19.87 615.605 21.19C614.845 22.49 613.795 23.49 612.455 24.19C611.135 24.89 609.655 25.24 608.015 25.24ZM608.015 20.8C608.995 20.8 609.825 20.44 610.505 19.72C611.205 19 611.555 17.97 611.555 16.63C611.555 15.29 611.215 14.26 610.535 13.54C609.875 12.82 609.055 12.46 608.075 12.46C607.075 12.46 606.245 12.82 605.585 13.54C604.925 14.24 604.595 15.27 604.595 16.63C604.595 17.97 604.915 19 605.555 19.72C606.215 20.44 607.035 20.8 608.015 20.8ZM636.027 8.26V25H630.897V22.72C630.377 23.46 629.667 24.06 628.767 24.52C627.887 24.96 626.907 25.18 625.827 25.18C624.547 25.18 623.417 24.9 622.437 24.34C621.457 23.76 620.697 22.93 620.157 21.85C619.617 20.77 619.347 19.5 619.347 18.04V8.26H624.447V17.35C624.447 18.47 624.737 19.34 625.317 19.96C625.897 20.58 626.677 20.89 627.657 20.89C628.657 20.89 629.447 20.58 630.027 19.96C630.607 19.34 630.897 18.47 630.897 17.35V8.26H636.027ZM644.842 11.05C645.442 10.13 646.192 9.41 647.092 8.89C647.992 8.35 648.992 8.08 650.092 8.08V13.51H648.682C647.402 13.51 646.442 13.79 645.802 14.35C645.162 14.89 644.842 15.85 644.842 17.23V25H639.712V8.26H644.842V11.05ZM674.681 16.36C674.681 16.84 674.651 17.34 674.591 17.86H662.981C663.061 18.9 663.391 19.7 663.971 20.26C664.571 20.8 665.301 21.07 666.161 21.07C667.441 21.07 668.331 20.53 668.831 19.45H674.291C674.011 20.55 673.501 21.54 672.761 22.42C672.041 23.3 671.131 23.99 670.031 24.49C668.931 24.99 667.701 25.24 666.341 25.24C664.701 25.24 663.241 24.89 661.961 24.19C660.681 23.49 659.681 22.49 658.961 21.19C658.241 19.89 657.881 18.37 657.881 16.63C657.881 14.89 658.231 13.37 658.931 12.07C659.651 10.77 660.651 9.77 661.931 9.07C663.211 8.37 664.681 8.02 666.341 8.02C667.961 8.02 669.401 8.36 670.661 9.04C671.921 9.72 672.901 10.69 673.601 11.95C674.321 13.21 674.681 14.68 674.681 16.36ZM669.431 15.01C669.431 14.13 669.131 13.43 668.531 12.91C667.931 12.39 667.181 12.13 666.281 12.13C665.421 12.13 664.691 12.38 664.091 12.88C663.511 13.38 663.151 14.09 663.011 15.01H669.431ZM687.287 25L684.077 20.35L681.377 25H675.827L681.347 16.45L675.677 8.26H681.437L684.647 12.88L687.347 8.26H692.897L687.287 16.69L693.047 25H687.287ZM694.004 16.6C694.004 14.88 694.324 13.37 694.964 12.07C695.624 10.77 696.514 9.77 697.634 9.07C698.754 8.37 700.004 8.02 701.384 8.02C702.564 8.02 703.594 8.26 704.474 8.74C705.374 9.22 706.064 9.85 706.544 10.63V8.26H711.674V25H706.544V22.63C706.044 23.41 705.344 24.04 704.444 24.52C703.564 25 702.534 25.24 701.354 25.24C699.994 25.24 698.754 24.89 697.634 24.19C696.514 23.47 695.624 22.46 694.964 21.16C694.324 19.84 694.004 18.32 694.004 16.6ZM706.544 16.63C706.544 15.35 706.184 14.34 705.464 13.6C704.764 12.86 703.904 12.49 702.884 12.49C701.864 12.49 700.994 12.86 700.274 13.6C699.574 14.32 699.224 15.32 699.224 16.6C699.224 17.88 699.574 18.9 700.274 19.66C700.994 20.4 701.864 20.77 702.884 20.77C703.904 20.77 704.764 20.4 705.464 19.66C706.184 18.92 706.544 17.91 706.544 16.63ZM714.365 16.63C714.365 14.89 714.715 13.37 715.415 12.07C716.135 10.77 717.125 9.77 718.385 9.07C719.665 8.37 721.125 8.02 722.765 8.02C724.865 8.02 726.615 8.57 728.015 9.67C729.435 10.77 730.365 12.32 730.805 14.32H725.345C724.885 13.04 723.995 12.4 722.675 12.4C721.735 12.4 720.985 12.77 720.425 13.51C719.865 14.23 719.585 15.27 719.585 16.63C719.585 17.99 719.865 19.04 720.425 19.78C720.985 20.5 721.735 20.86 722.675 20.86C723.995 20.86 724.885 20.22 725.345 18.94H730.805C730.365 20.9 729.435 22.44 728.015 23.56C726.595 24.68 724.845 25.24 722.765 25.24C721.125 25.24 719.665 24.89 718.385 24.19C717.125 23.49 716.135 22.49 715.415 21.19C714.715 19.89 714.365 18.37 714.365 16.63ZM742.879 20.65V25H740.269C738.409 25 736.959 24.55 735.919 23.65C734.879 22.73 734.359 21.24 734.359 19.18V12.52H732.319V8.26H734.359V4.18H739.489V8.26H742.849V12.52H739.489V19.24C739.489 19.74 739.609 20.1 739.849 20.32C740.089 20.54 740.489 20.65 741.049 20.65H742.879ZM748.317 6.52C747.417 6.52 746.677 6.26 746.097 5.74C745.537 5.2 745.257 4.54 745.257 3.76C745.257 2.96 745.537 2.3 746.097 1.78C746.677 1.24 747.417 0.969998 748.317 0.969998C749.197 0.969998 749.917 1.24 750.477 1.78C751.057 2.3 751.347 2.96 751.347 3.76C751.347 4.54 751.057 5.2 750.477 5.74C749.917 6.26 749.197 6.52 748.317 6.52ZM750.867 8.26V25H745.737V8.26H750.867ZM764.785 8.08C766.745 8.08 768.305 8.72 769.465 10C770.645 11.26 771.235 13 771.235 15.22V25H766.135V15.91C766.135 14.79 765.845 13.92 765.265 13.3C764.685 12.68 763.905 12.37 762.925 12.37C761.945 12.37 761.165 12.68 760.585 13.3C760.005 13.92 759.715 14.79 759.715 15.91V25H754.585V8.26H759.715V10.48C760.235 9.74 760.935 9.16 761.815 8.74C762.695 8.3 763.685 8.08 764.785 8.08ZM781.159 8.02C782.339 8.02 783.369 8.26 784.249 8.74C785.149 9.22 785.839 9.85 786.319 10.63V8.26H791.449V24.97C791.449 26.51 791.139 27.9 790.519 29.14C789.919 30.4 788.989 31.4 787.729 32.14C786.489 32.88 784.939 33.25 783.079 33.25C780.599 33.25 778.589 32.66 777.049 31.48C775.509 30.32 774.629 28.74 774.409 26.74H779.479C779.639 27.38 780.019 27.88 780.619 28.24C781.219 28.62 781.959 28.81 782.839 28.81C783.899 28.81 784.739 28.5 785.359 27.88C785.999 27.28 786.319 26.31 786.319 24.97V22.6C785.819 23.38 785.129 24.02 784.249 24.52C783.369 25 782.339 25.24 781.159 25.24C779.779 25.24 778.529 24.89 777.409 24.19C776.289 23.47 775.399 22.46 774.739 21.16C774.099 19.84 773.779 18.32 773.779 16.6C773.779 14.88 774.099 13.37 774.739 12.07C775.399 10.77 776.289 9.77 777.409 9.07C778.529 8.37 779.779 8.02 781.159 8.02ZM786.319 16.63C786.319 15.35 785.959 14.34 785.239 13.6C784.539 12.86 783.679 12.49 782.659 12.49C781.639 12.49 780.769 12.86 780.049 13.6C779.349 14.32 778.999 15.32 778.999 16.6C778.999 17.88 779.349 18.9 780.049 19.66C780.769 20.4 781.639 20.77 782.659 20.77C783.679 20.77 784.539 20.4 785.239 19.66C785.959 18.92 786.319 17.91 786.319 16.63ZM800.498 16.6C800.498 14.88 800.818 13.37 801.458 12.07C802.118 10.77 803.008 9.77 804.128 9.07C805.248 8.37 806.498 8.02 807.878 8.02C808.978 8.02 809.978 8.25 810.878 8.71C811.798 9.17 812.518 9.79 813.038 10.57V2.8H818.168V25H813.038V22.6C812.558 23.4 811.868 24.04 810.968 24.52C810.088 25 809.058 25.24 807.878 25.24C806.498 25.24 805.248 24.89 804.128 24.19C803.008 23.47 802.118 22.46 801.458 21.16C800.818 19.84 800.498 18.32 800.498 16.6ZM813.038 16.63C813.038 15.35 812.678 14.34 811.958 13.6C811.258 12.86 810.398 12.49 809.378 12.49C808.358 12.49 807.488 12.86 806.768 13.6C806.068 14.32 805.718 15.32 805.718 16.6C805.718 17.88 806.068 18.9 806.768 19.66C807.488 20.4 808.358 20.77 809.378 20.77C810.398 20.77 811.258 20.4 811.958 19.66C812.678 18.92 813.038 17.91 813.038 16.63ZM837.66 16.36C837.66 16.84 837.63 17.34 837.57 17.86H825.96C826.04 18.9 826.37 19.7 826.95 20.26C827.55 20.8 828.28 21.07 829.14 21.07C830.42 21.07 831.31 20.53 831.81 19.45H837.27C836.99 20.55 836.48 21.54 835.74 22.42C835.02 23.3 834.11 23.99 833.01 24.49C831.91 24.99 830.68 25.24 829.32 25.24C827.68 25.24 826.22 24.89 824.94 24.19C823.66 23.49 822.66 22.49 821.94 21.19C821.22 19.89 820.86 18.37 820.86 16.63C820.86 14.89 821.21 13.37 821.91 12.07C822.63 10.77 823.63 9.77 824.91 9.07C826.19 8.37 827.66 8.02 829.32 8.02C830.94 8.02 832.38 8.36 833.64 9.04C834.9 9.72 835.88 10.69 836.58 11.95C837.3 13.21 837.66 14.68 837.66 16.36ZM832.41 15.01C832.41 14.13 832.11 13.43 831.51 12.91C830.91 12.39 830.16 12.13 829.26 12.13C828.4 12.13 827.67 12.38 827.07 12.88C826.49 13.38 826.13 14.09 825.99 15.01H832.41ZM861.726 8.08C863.806 8.08 865.456 8.71 866.676 9.97C867.916 11.23 868.536 12.98 868.536 15.22V25H863.436V15.91C863.436 14.83 863.146 14 862.566 13.42C862.006 12.82 861.226 12.52 860.226 12.52C859.226 12.52 858.436 12.82 857.856 13.42C857.296 14 857.016 14.83 857.016 15.91V25H851.916V15.91C851.916 14.83 851.626 14 851.046 13.42C850.486 12.82 849.706 12.52 848.706 12.52C847.706 12.52 846.916 12.82 846.336 13.42C845.776 14 845.496 14.83 845.496 15.91V25H840.366V8.26H845.496V10.36C846.016 9.66 846.696 9.11 847.536 8.71C848.376 8.29 849.326 8.08 850.386 8.08C851.646 8.08 852.766 8.35 853.746 8.89C854.746 9.43 855.526 10.2 856.086 11.2C856.666 10.28 857.456 9.53 858.456 8.95C859.456 8.37 860.546 8.08 861.726 8.08ZM871.104 16.6C871.104 14.88 871.424 13.37 872.064 12.07C872.724 10.77 873.614 9.77 874.734 9.07C875.854 8.37 877.104 8.02 878.484 8.02C879.664 8.02 880.694 8.26 881.574 8.74C882.474 9.22 883.164 9.85 883.644 10.63V8.26H888.774V25H883.644V22.63C883.144 23.41 882.444 24.04 881.544 24.52C880.664 25 879.634 25.24 878.454 25.24C877.094 25.24 875.854 24.89 874.734 24.19C873.614 23.47 872.724 22.46 872.064 21.16C871.424 19.84 871.104 18.32 871.104 16.6ZM883.644 16.63C883.644 15.35 883.284 14.34 882.564 13.6C881.864 12.86 881.004 12.49 879.984 12.49C878.964 12.49 878.094 12.86 877.374 13.6C876.674 14.32 876.324 15.32 876.324 16.6C876.324 17.88 876.674 18.9 877.374 19.66C878.094 20.4 878.964 20.77 879.984 20.77C881.004 20.77 881.864 20.4 882.564 19.66C883.284 18.92 883.644 17.91 883.644 16.63ZM902.685 8.08C904.645 8.08 906.205 8.72 907.365 10C908.545 11.26 909.135 13 909.135 15.22V25H904.035V15.91C904.035 14.79 903.745 13.92 903.165 13.3C902.585 12.68 901.805 12.37 900.825 12.37C899.845 12.37 899.065 12.68 898.485 13.3C897.905 13.92 897.615 14.79 897.615 15.91V25H892.485V8.26H897.615V10.48C898.135 9.74 898.835 9.16 899.715 8.74C900.595 8.3 901.585 8.08 902.685 8.08ZM911.68 16.6C911.68 14.88 912 13.37 912.64 12.07C913.3 10.77 914.19 9.77 915.31 9.07C916.43 8.37 917.68 8.02 919.06 8.02C920.16 8.02 921.16 8.25 922.06 8.71C922.98 9.17 923.7 9.79 924.22 10.57V2.8H929.35V25H924.22V22.6C923.74 23.4 923.05 24.04 922.15 24.52C921.27 25 920.24 25.24 919.06 25.24C917.68 25.24 916.43 24.89 915.31 24.19C914.19 23.47 913.3 22.46 912.64 21.16C912 19.84 911.68 18.32 911.68 16.6ZM924.22 16.63C924.22 15.35 923.86 14.34 923.14 13.6C922.44 12.86 921.58 12.49 920.56 12.49C919.54 12.49 918.67 12.86 917.95 13.6C917.25 14.32 916.9 15.32 916.9 16.6C916.9 17.88 917.25 18.9 917.95 19.66C918.67 20.4 919.54 20.77 920.56 20.77C921.58 20.77 922.44 20.4 923.14 19.66C923.86 18.92 924.22 17.91 924.22 16.63ZM939.871 25.24C938.411 25.24 937.111 24.99 935.971 24.49C934.831 23.99 933.931 23.31 933.271 22.45C932.611 21.57 932.241 20.59 932.161 19.51H937.231C937.291 20.09 937.561 20.56 938.041 20.92C938.521 21.28 939.111 21.46 939.811 21.46C940.451 21.46 940.941 21.34 941.281 21.1C941.641 20.84 941.821 20.51 941.821 20.11C941.821 19.63 941.571 19.28 941.071 19.06C940.571 18.82 939.761 18.56 938.641 18.28C937.441 18 936.441 17.71 935.641 17.41C934.841 17.09 934.151 16.6 933.571 15.94C932.991 15.26 932.701 14.35 932.701 13.21C932.701 12.25 932.961 11.38 933.481 10.6C934.021 9.8 934.801 9.17 935.821 8.71C936.861 8.25 938.091 8.02 939.511 8.02C941.611 8.02 943.261 8.54 944.461 9.58C945.681 10.62 946.381 12 946.561 13.72H941.821C941.741 13.14 941.481 12.68 941.041 12.34C940.621 12 940.061 11.83 939.361 11.83C938.761 11.83 938.301 11.95 937.981 12.19C937.661 12.41 937.501 12.72 937.501 13.12C937.501 13.6 937.751 13.96 938.251 14.2C938.771 14.44 939.571 14.68 940.651 14.92C941.891 15.24 942.901 15.56 943.681 15.88C944.461 16.18 945.141 16.68 945.721 17.38C946.321 18.06 946.631 18.98 946.651 20.14C946.651 21.12 946.371 22 945.811 22.78C945.271 23.54 944.481 24.14 943.441 24.58C942.421 25.02 941.231 25.24 939.871 25.24Z" fill="white"/>
</svg>
