<svg width="51" height="52" viewBox="0 0 51 52" fill="none" xmlns="http://www.w3.org/2000/svg">
<path opacity="0.1" fill-rule="evenodd" clip-rule="evenodd" d="M0.0957031 26.1083C0.0957031 12.0877 11.4617 0.72168 25.4824 0.72168C39.503 0.72168 50.869 12.0877 50.869 26.1083C50.869 40.129 39.503 51.495 25.4824 51.495C11.4617 51.495 0.0957031 40.129 0.0957031 26.1083Z" fill="#F9F9F9"/>
<path fill-rule="evenodd" clip-rule="evenodd" d="M36.0624 17.3799C37.2276 17.6996 38.1452 18.6417 38.4566 19.8381C39.0225 22.0063 39.0225 26.5304 39.0225 26.5304C39.0225 26.5304 39.0225 31.0543 38.4566 33.2227C38.1452 34.4191 37.2276 35.3611 36.0624 35.681C33.9508 36.2619 25.4829 36.2619 25.4829 36.2619C25.4829 36.2619 17.015 36.2619 14.9033 35.681C13.7381 35.3611 12.8205 34.4191 12.5091 33.2227C11.9434 31.0543 11.9434 26.5304 11.9434 26.5304C11.9434 26.5304 11.9434 22.0063 12.5091 19.8381C12.8205 18.6417 13.7381 17.6996 14.9033 17.3799C17.015 16.7988 25.4829 16.7988 25.4829 16.7988C25.4829 16.7988 33.9508 16.7988 36.0624 17.3799ZM22.9443 22.7223V31.1845L29.7141 26.9536L22.9443 22.7223Z" fill="#F9F9F9"/>
</svg>
