<svg width="188" height="34" viewBox="0 0 188 34" fill="none" xmlns="http://www.w3.org/2000/svg">
<path d="M7.2 4.92V21.72C7.2 23.4 7.61333 24.6933 8.44 25.6C9.26667 26.5067 10.48 26.96 12.08 26.96C13.68 26.96 14.9067 26.5067 15.76 25.6C16.6133 24.6933 17.04 23.4 17.04 21.72V4.92H23.88V21.68C23.88 24.1867 23.3467 26.3067 22.28 28.04C21.2133 29.7733 19.7733 31.08 17.96 31.96C16.1733 32.84 14.1733 33.28 11.96 33.28C9.74667 33.28 7.76 32.8533 6 32C4.26667 31.12 2.89333 29.8133 1.88 28.08C0.866667 26.32 0.36 24.1867 0.36 21.68V4.92H7.2ZM42.2831 10.44C44.8965 10.44 46.9765 11.2933 48.5231 13C50.0965 14.68 50.8831 17 50.8831 19.96V33H44.0831V20.88C44.0831 19.3867 43.6965 18.2267 42.9231 17.4C42.1498 16.5733 41.1098 16.16 39.8031 16.16C38.4965 16.16 37.4565 16.5733 36.6831 17.4C35.9098 18.2267 35.5231 19.3867 35.5231 20.88V33H28.6831V10.68H35.5231V13.64C36.2165 12.6533 37.1498 11.88 38.3231 11.32C39.4965 10.7333 40.8165 10.44 42.2831 10.44ZM59.0763 8.36C57.8763 8.36 56.8896 8.01333 56.1163 7.32C55.3696 6.6 54.9963 5.72 54.9963 4.68C54.9963 3.61333 55.3696 2.73333 56.1163 2.04C56.8896 1.32 57.8763 0.959998 59.0763 0.959998C60.2496 0.959998 61.2096 1.32 61.9563 2.04C62.7296 2.73333 63.1163 3.61333 63.1163 4.68C63.1163 5.72 62.7296 6.6 61.9563 7.32C61.2096 8.01333 60.2496 8.36 59.0763 8.36ZM62.4763 10.68V33H55.6363V10.68H62.4763ZM84.6331 16.12V21.8H67.0331V16.12H84.6331ZM100.796 33.28C98.7429 33.28 96.9029 32.9467 95.2763 32.28C93.6496 31.6133 92.3429 30.6267 91.3563 29.32C90.3963 28.0133 89.8896 26.44 89.8363 24.6H97.1163C97.2229 25.64 97.5829 26.44 98.1963 27C98.8096 27.5333 99.6096 27.8 100.596 27.8C101.61 27.8 102.41 27.5733 102.996 27.12C103.583 26.64 103.876 25.9867 103.876 25.16C103.876 24.4667 103.636 23.8933 103.156 23.44C102.703 22.9867 102.13 22.6133 101.436 22.32C100.77 22.0267 99.8096 21.6933 98.5563 21.32C96.7429 20.76 95.2629 20.2 94.1163 19.64C92.9696 19.08 91.9829 18.2533 91.1563 17.16C90.3296 16.0667 89.9163 14.64 89.9163 12.88C89.9163 10.2667 90.8629 8.22667 92.7563 6.76C94.6496 5.26667 97.1163 4.52 100.156 4.52C103.25 4.52 105.743 5.26667 107.636 6.76C109.53 8.22667 110.543 10.28 110.676 12.92H103.276C103.223 12.0133 102.89 11.3067 102.276 10.8C101.663 10.2667 100.876 10 99.9162 10C99.0896 10 98.4229 10.2267 97.9163 10.68C97.4096 11.1067 97.1563 11.7333 97.1563 12.56C97.1563 13.4667 97.5829 14.1733 98.4362 14.68C99.2896 15.1867 100.623 15.7333 102.436 16.32C104.25 16.9333 105.716 17.52 106.836 18.08C107.983 18.64 108.97 19.4533 109.796 20.52C110.623 21.5867 111.036 22.96 111.036 24.64C111.036 26.24 110.623 27.6933 109.796 29C108.996 30.3067 107.823 31.3467 106.276 32.12C104.73 32.8933 102.903 33.28 100.796 33.28ZM125.406 33.32C123.219 33.32 121.246 32.8533 119.486 31.92C117.752 30.9867 116.379 29.6533 115.366 27.92C114.379 26.1867 113.886 24.16 113.886 21.84C113.886 19.5467 114.392 17.5333 115.406 15.8C116.419 14.04 117.806 12.6933 119.566 11.76C121.326 10.8267 123.299 10.36 125.486 10.36C127.672 10.36 129.646 10.8267 131.406 11.76C133.166 12.6933 134.552 14.04 135.566 15.8C136.579 17.5333 137.086 19.5467 137.086 21.84C137.086 24.1333 136.566 26.16 135.526 27.92C134.512 29.6533 133.112 30.9867 131.326 31.92C129.566 32.8533 127.592 33.32 125.406 33.32ZM125.406 27.4C126.712 27.4 127.819 26.92 128.726 25.96C129.659 25 130.126 23.6267 130.126 21.84C130.126 20.0533 129.672 18.68 128.766 17.72C127.886 16.76 126.792 16.28 125.486 16.28C124.152 16.28 123.046 16.76 122.166 17.72C121.286 18.6533 120.846 20.0267 120.846 21.84C120.846 23.6267 121.272 25 122.126 25.96C123.006 26.92 124.099 27.4 125.406 27.4ZM154.354 33L147.554 23.64V33H140.714V3.4H147.554V19.76L154.314 10.68H162.754L153.474 21.88L162.834 33H154.354ZM175.601 33.32C173.414 33.32 171.441 32.8533 169.681 31.92C167.948 30.9867 166.574 29.6533 165.561 27.92C164.574 26.1867 164.081 24.16 164.081 21.84C164.081 19.5467 164.588 17.5333 165.601 15.8C166.614 14.04 168.001 12.6933 169.761 11.76C171.521 10.8267 173.494 10.36 175.681 10.36C177.868 10.36 179.841 10.8267 181.601 11.76C183.361 12.6933 184.748 14.04 185.761 15.8C186.774 17.5333 187.281 19.5467 187.281 21.84C187.281 24.1333 186.761 26.16 185.721 27.92C184.708 29.6533 183.308 30.9867 181.521 31.92C179.761 32.8533 177.788 33.32 175.601 33.32ZM175.601 27.4C176.908 27.4 178.014 26.92 178.921 25.96C179.854 25 180.321 23.6267 180.321 21.84C180.321 20.0533 179.868 18.68 178.961 17.72C178.081 16.76 176.988 16.28 175.681 16.28C174.348 16.28 173.241 16.76 172.361 17.72C171.481 18.6533 171.041 20.0267 171.041 21.84C171.041 23.6267 171.468 25 172.321 25.96C173.201 26.92 174.294 27.4 175.601 27.4Z" fill="#4A99D3"/>
</svg>
