<svg width="33" height="30" viewBox="0 0 33 30" fill="none" xmlns="http://www.w3.org/2000/svg">
<g clip-path="url(#clip0_1_183)">
<path d="M7.27881 26.3401C7.27881 23.1271 9.53881 20.3902 12.6102 19.8839L12.8869 19.8382C15.3463 19.4328 17.8524 19.4328 20.3119 19.8382L20.5885 19.8839C23.6599 20.3902 25.92 23.1271 25.92 26.3401C25.92 27.7289 24.8301 28.8547 23.4858 28.8547H9.71298C8.36862 28.8547 7.27881 27.7289 7.27881 26.3401Z" stroke="white" stroke-width="1.99727"/>
<path d="M22.0364 10.1303C22.0364 13.0259 19.6022 15.3732 16.5994 15.3732C13.5966 15.3732 11.1624 13.0259 11.1624 10.1303C11.1624 7.2348 13.5966 4.88751 16.5994 4.88751C19.6022 4.88751 22.0364 7.2348 22.0364 10.1303Z" stroke="white" stroke-width="1.99727"/>
</g>
<defs>
<clipPath id="clip0_1_183">
<rect width="32.0891" height="29.0511" fill="white" transform="translate(0.621094 0.893005)"/>
</clipPath>
</defs>
</svg>
