<svg width="52" height="52" viewBox="0 0 52 52" fill="none" xmlns="http://www.w3.org/2000/svg">
<path opacity="0.1" fill-rule="evenodd" clip-rule="evenodd" d="M0.775391 26.1083C0.775391 12.0877 12.1414 0.72168 26.1621 0.72168C40.1827 0.72168 51.5487 12.0877 51.5487 26.1083C51.5487 40.129 40.1827 51.495 26.1621 51.495C12.1414 51.495 0.775391 40.129 0.775391 26.1083Z" fill="#F9F9F9"/>
<path fill-rule="evenodd" clip-rule="evenodd" d="M39.7012 26.0891C39.7012 27.0048 39.608 27.9192 39.4249 28.8105C39.2463 29.6806 38.9819 30.5349 38.6354 31.3515C38.297 32.1537 37.8771 32.9268 37.3866 33.6477C36.9033 34.364 36.3466 35.0361 35.735 35.6487C35.1221 36.2587 34.4478 36.8139 33.7318 37.2992C33.0085 37.7864 32.2343 38.2056 31.4317 38.5457C30.6138 38.8903 29.7576 39.1543 28.8882 39.3326C27.9957 39.5162 27.078 39.6099 26.161 39.6099C25.2434 39.6099 24.3257 39.5162 23.4345 39.3326C22.5638 39.1543 21.7076 38.8903 20.8904 38.5457C20.0878 38.2056 19.3129 37.7864 18.5896 37.2992C17.8736 36.814 17.1992 36.2587 16.5876 35.6487C15.9754 35.0361 15.4187 34.364 14.9348 33.6477C14.4469 32.9268 14.0263 32.1537 13.6865 31.3515C13.34 30.5349 13.075 29.6806 12.8958 28.8105C12.7147 27.9192 12.6221 27.0048 12.6221 26.0891C12.6221 25.1728 12.7146 24.2565 12.8958 23.3671C13.075 22.497 13.3401 21.6414 13.6866 20.8261C14.0264 20.0233 14.4469 19.2496 14.9348 18.5286C15.4188 17.8117 15.9755 17.1409 16.5877 16.5275C17.1993 15.9175 17.8736 15.3636 18.5896 14.8791C19.3129 14.3898 20.0878 13.9707 20.8904 13.63C21.7076 13.2846 22.5638 13.0199 23.4345 12.843C24.3257 12.6608 25.2434 12.5684 26.1611 12.5684C27.078 12.5684 27.9957 12.6608 28.8883 12.843C29.7576 13.02 30.6138 13.2847 31.4317 13.63C32.2343 13.9706 33.0085 14.3898 33.7318 14.8791C34.4478 15.3636 35.1222 15.9175 35.7351 16.5275C36.3466 17.1409 36.9034 17.8117 37.3866 18.5286C37.8771 19.2496 38.297 20.0233 38.6354 20.8261C38.9819 21.6414 39.2463 22.497 39.4249 23.3671C39.608 24.2565 39.7012 25.1728 39.7012 26.0891ZM21.2275 15.6455C18.0031 17.166 15.5965 20.1329 14.8461 23.7085C15.1509 23.7111 19.9693 23.7719 25.5209 22.2989C23.5197 18.7484 21.3815 15.8509 21.2275 15.6455ZM26.4789 24.0769C20.5254 25.8567 14.8124 25.7286 14.6074 25.7208C14.6041 25.8449 14.5982 25.965 14.5982 26.0891C14.5982 29.0553 15.7188 31.7595 17.5607 33.8041C17.5568 33.7982 20.7211 28.1925 26.9609 26.1776C27.1116 26.1274 27.2651 26.0825 27.4171 26.039C27.1269 25.3828 26.8102 24.7252 26.4789 24.0769ZM33.7972 17.4234C31.7615 15.631 29.0885 14.5437 26.161 14.5437C25.2215 14.5437 24.3097 14.6573 23.4364 14.8672C23.6096 15.0996 25.7815 17.9767 27.7589 21.6024C32.1219 19.9691 33.7688 17.4657 33.7972 17.4234ZM28.2053 27.9522C28.1795 27.9607 28.1538 27.9681 28.1286 27.9773C21.3064 30.3522 19.0785 35.1383 19.0544 35.1905C21.0173 36.7149 23.4794 37.6346 26.1611 37.6346C27.7623 37.6346 29.2876 37.309 30.6753 36.7196C30.5041 35.7108 29.8323 32.1748 28.2053 27.9522ZM32.6224 35.6646C35.2186 33.9151 37.0626 31.137 37.5769 27.9191C37.3389 27.8425 34.1039 26.8199 30.3718 27.4174C31.8884 31.5793 32.5047 34.9687 32.6224 35.6646ZM28.6489 23.3229C28.9173 23.8735 29.1772 24.4339 29.4172 24.9972C29.5025 25.1992 29.5858 25.3973 29.6671 25.5953C33.6392 25.0962 37.5526 25.9359 37.7199 25.9702C37.6934 23.2331 36.7129 20.7211 35.0905 18.7544C35.0687 18.7853 33.2142 21.4611 28.6489 23.3229Z" fill="#F9F9F9"/>
</svg>
