<svg width="59" height="63" viewBox="0 0 59 63" fill="none" xmlns="http://www.w3.org/2000/svg">
<path d="M26.3318 2.81802C27.2295 2.31948 28.2394 2.05786 29.2663 2.05786C30.2932 2.05786 31.3031 2.31948 32.2009 2.81802L54.9126 15.4327C55.3835 15.6945 55.7758 16.0775 56.0489 16.5419C56.3221 17.0063 56.4661 17.5353 56.4661 18.074V42.9618C56.4658 44.0397 56.1773 45.0978 55.6305 46.0267C55.0837 46.9556 54.2985 47.7213 53.3562 48.2446L32.2009 60.0009C31.3031 60.4995 30.2932 60.7611 29.2663 60.7611C28.2394 60.7611 27.2295 60.4995 26.3318 60.0009L5.17642 48.2446C4.23458 47.7215 3.44964 46.9563 2.90287 46.028C2.35611 45.0997 2.06738 44.0422 2.06659 42.9648V18.074C2.06657 17.5353 2.21057 17.0063 2.4837 16.5419C2.75682 16.0775 3.14913 15.6945 3.62 15.4327L26.3348 2.81802H26.3318Z" stroke="#EB4C56" stroke-width="3.45393" stroke-linecap="round" stroke-linejoin="round"/>
</svg>
