<svg width="40" height="29" viewBox="0 0 40 29" fill="none" xmlns="http://www.w3.org/2000/svg">
<path d="M4.032 8.048V13.64H10.128V15.44H4.032V21.2H10.848V23H1.848V6.248H10.848V8.048H4.032ZM20.5607 9.608C22.1607 9.608 23.4567 10.096 24.4487 11.072C25.4407 12.032 25.9367 13.424 25.9367 15.248V23H23.7767V15.56C23.7767 14.248 23.4487 13.248 22.7927 12.56C22.1367 11.856 21.2407 11.504 20.1047 11.504C18.9527 11.504 18.0327 11.864 17.3447 12.584C16.6727 13.304 16.3367 14.352 16.3367 15.728V23H14.1527V9.848H16.3367V11.72C16.7687 11.048 17.3527 10.528 18.0887 10.16C18.8407 9.792 19.6647 9.608 20.5607 9.608Z" fill="white"/>
<g clip-path="url(#clip0_231_239)">
<path d="M39.375 16.125L35 19.875L30.625 16.125" stroke="#F9F9F9" stroke-width="2" stroke-linecap="round" stroke-linejoin="round"/>
</g>
<defs>
<clipPath id="clip0_231_239">
<rect width="10" height="10" fill="white" transform="translate(30 13)"/>
</clipPath>
</defs>
</svg>
