<svg width="99" height="57" viewBox="0 0 99 57" fill="none" xmlns="http://www.w3.org/2000/svg">
<path d="M6.216 56.168C5.048 56.168 3.992 55.968 3.048 55.568C2.12 55.168 1.384 54.592 0.84 53.84C0.296 53.088 0.016 52.2 0 51.176H3.6C3.648 51.864 3.888 52.408 4.32 52.808C4.768 53.208 5.376 53.408 6.144 53.408C6.928 53.408 7.544 53.224 7.992 52.856C8.44 52.472 8.664 51.976 8.664 51.368C8.664 50.872 8.512 50.464 8.208 50.144C7.904 49.824 7.52 49.576 7.056 49.4C6.608 49.208 5.984 49 5.184 48.776C4.096 48.456 3.208 48.144 2.52 47.84C1.848 47.52 1.264 47.048 0.768 46.424C0.288 45.784 0.048 44.936 0.048 43.88C0.048 42.888 0.296 42.024 0.792 41.288C1.288 40.552 1.984 39.992 2.88 39.608C3.776 39.208 4.8 39.008 5.952 39.008C7.68 39.008 9.08 39.432 10.152 40.28C11.24 41.112 11.84 42.28 11.952 43.784H8.256C8.224 43.208 7.976 42.736 7.512 42.368C7.064 41.984 6.464 41.792 5.712 41.792C5.056 41.792 4.528 41.96 4.128 42.296C3.744 42.632 3.552 43.12 3.552 43.76C3.552 44.208 3.696 44.584 3.984 44.888C4.288 45.176 4.656 45.416 5.088 45.608C5.536 45.784 6.16 45.992 6.96 46.232C8.048 46.552 8.936 46.872 9.624 47.192C10.312 47.512 10.904 47.992 11.4 48.632C11.896 49.272 12.144 50.112 12.144 51.152C12.144 52.048 11.912 52.88 11.448 53.648C10.984 54.416 10.304 55.032 9.408 55.496C8.512 55.944 7.448 56.168 6.216 56.168Z" fill="#F9F9F9"/>
<path d="M24.513 56L18.417 48.536V56H15.057V39.248H18.417V46.76L24.513 39.248H28.569L21.657 47.552L28.761 56H24.513Z" fill="#F9F9F9"/>
<path d="M44.2911 39.248L38.6271 50.168V56H35.2671V50.168L29.5791 39.248H33.3711L36.9711 46.904L40.5471 39.248H44.2911Z" fill="#F9F9F9"/>
<path d="M59.1169 56L57.2929 54.2C55.7409 55.592 53.8449 56.288 51.6049 56.288C50.3729 56.288 49.2849 56.08 48.3409 55.664C47.4129 55.232 46.6929 54.632 46.1809 53.864C45.6689 53.08 45.4129 52.176 45.4129 51.152C45.4129 50.048 45.7249 49.056 46.3489 48.176C46.9729 47.296 47.8929 46.584 49.1089 46.04C48.6769 45.512 48.3649 45.008 48.1729 44.528C47.9809 44.032 47.8849 43.504 47.8849 42.944C47.8849 42.176 48.0849 41.488 48.4849 40.88C48.8849 40.256 49.4529 39.768 50.1889 39.416C50.9409 39.064 51.8129 38.888 52.8049 38.888C53.8129 38.888 54.6769 39.08 55.3969 39.464C56.1169 39.848 56.6529 40.36 57.0049 41C57.3569 41.64 57.5089 42.352 57.4609 43.136H54.1969C54.2129 42.608 54.0849 42.208 53.8129 41.936C53.5409 41.648 53.1729 41.504 52.7089 41.504C52.2609 41.504 51.8849 41.64 51.5809 41.912C51.2929 42.168 51.1489 42.504 51.1489 42.92C51.1489 43.32 51.2689 43.72 51.5089 44.12C51.7489 44.504 52.1409 44.984 52.6849 45.56L56.9089 49.736C56.9409 49.704 56.9649 49.672 56.9809 49.64C56.9969 49.608 57.0129 49.576 57.0289 49.544L58.3969 47.264H61.9009L60.2209 50.216C59.9009 50.84 59.5569 51.432 59.1889 51.992L63.2449 56H59.1169ZM51.7009 53.504C53.0129 53.504 54.1729 53.04 55.1809 52.112L51.0529 48.032C49.5009 48.72 48.7249 49.696 48.7249 50.96C48.7249 51.68 48.9969 52.288 49.5409 52.784C50.0849 53.264 50.8049 53.504 51.7009 53.504Z" fill="#F9F9F9"/>
<path d="M70.6926 56.168C69.5246 56.168 68.4686 55.968 67.5246 55.568C66.5966 55.168 65.8606 54.592 65.3166 53.84C64.7726 53.088 64.4926 52.2 64.4766 51.176H68.0766C68.1246 51.864 68.3646 52.408 68.7966 52.808C69.2446 53.208 69.8526 53.408 70.6206 53.408C71.4046 53.408 72.0206 53.224 72.4686 52.856C72.9166 52.472 73.1406 51.976 73.1406 51.368C73.1406 50.872 72.9886 50.464 72.6846 50.144C72.3806 49.824 71.9966 49.576 71.5326 49.4C71.0846 49.208 70.4606 49 69.6606 48.776C68.5726 48.456 67.6846 48.144 66.9966 47.84C66.3246 47.52 65.7406 47.048 65.2446 46.424C64.7646 45.784 64.5246 44.936 64.5246 43.88C64.5246 42.888 64.7726 42.024 65.2686 41.288C65.7646 40.552 66.4606 39.992 67.3566 39.608C68.2526 39.208 69.2766 39.008 70.4286 39.008C72.1566 39.008 73.5566 39.432 74.6286 40.28C75.7166 41.112 76.3166 42.28 76.4286 43.784H72.7326C72.7006 43.208 72.4526 42.736 71.9886 42.368C71.5406 41.984 70.9406 41.792 70.1886 41.792C69.5326 41.792 69.0046 41.96 68.6046 42.296C68.2206 42.632 68.0286 43.12 68.0286 43.76C68.0286 44.208 68.1726 44.584 68.4606 44.888C68.7646 45.176 69.1326 45.416 69.5646 45.608C70.0126 45.784 70.6366 45.992 71.4366 46.232C72.5246 46.552 73.4126 46.872 74.1006 47.192C74.7886 47.512 75.3806 47.992 75.8766 48.632C76.3726 49.272 76.6206 50.112 76.6206 51.152C76.6206 52.048 76.3886 52.88 75.9246 53.648C75.4606 54.416 74.7806 55.032 73.8846 55.496C72.9886 55.944 71.9246 56.168 70.6926 56.168Z" fill="#F9F9F9"/>
<path d="M88.9896 56L82.8936 48.536V56H79.5336V39.248H82.8936V46.76L88.9896 39.248H93.0456L86.1336 47.552L93.2376 56H88.9896Z" fill="#F9F9F9"/>
<path d="M98.8076 39.248V56H95.4476V39.248H98.8076Z" fill="#F9F9F9"/>
<path d="M41.2129 3.12495C40.9066 2.2397 41.5186 1.31096 42.5798 1.05055L43.5405 0.814786C44.6018 0.554374 45.7104 1.0609 46.0167 1.94615L56 30.7981C56.3063 31.6833 55.6943 32.6121 54.6331 32.8725L53.6724 33.1082C52.6112 33.3686 51.5026 32.8621 51.1963 31.9769L41.2129 3.12495Z" fill="#F9F9F9"/>
<path d="M55.0522 2.60765C55.4289 1.73861 56.576 1.28561 57.6143 1.59585L58.5543 1.87672C59.5927 2.18695 60.1291 3.14295 59.7524 4.01199L47.4768 32.3356C47.1001 33.2047 45.9531 33.6577 44.9147 33.3474L43.9747 33.0666C42.9364 32.7563 42.4 31.8003 42.7766 30.9313L55.0522 2.60765Z" fill="#F9F9F9"/>
<path d="M42.0014 20.4244C42.1226 20.874 40.8655 21.499 39.1937 21.8202C37.5218 22.1415 36.0683 22.0374 35.9471 21.5878C35.8259 21.1382 37.0829 20.5133 38.7548 20.192C40.4267 19.8708 41.8802 19.9748 42.0014 20.4244Z" fill="#F9F9F9"/>
<path d="M32.8119 1.48253C32.6926 1.03255 33.033 0.58514 33.5723 0.483207C34.1115 0.381273 34.6453 0.663418 34.7646 1.1134L40.6203 23.2056C40.7396 23.6556 40.3992 24.103 39.8599 24.2049C39.3207 24.3069 38.7869 24.0247 38.6676 23.5747L32.8119 1.48253Z" fill="#F9F9F9"/>
<path d="M61.9983 24.666C61.8484 25.1107 60.3899 25.1618 58.7406 24.7803C57.0913 24.3987 55.8758 23.7289 56.0257 23.2842C56.1756 22.8396 57.6341 22.7884 59.2834 23.1699C60.9327 23.5515 62.1482 24.2213 61.9983 24.666Z" fill="#F9F9F9"/>
<path d="M64.7319 4.30735C64.8837 3.8631 65.4372 3.60393 65.9682 3.72848C66.4992 3.85303 66.8066 4.31413 66.6548 4.75838L59.2024 26.5694C59.0506 27.0136 58.4971 27.2728 57.9661 27.1482C57.4351 27.0237 57.1277 26.5626 57.2795 26.1183L64.7319 4.30735Z" fill="#F9F9F9"/>
</svg>
