<svg width="32" height="32" viewBox="0 0 32 32" fill="none" xmlns="http://www.w3.org/2000/svg">
<path opacity="0.3" fill-rule="evenodd" clip-rule="evenodd" d="M5.3335 5.33341L15.6316 3.40252C15.8752 3.35685 16.1251 3.35685 16.3687 3.40252L26.6668 5.33341V17.9034C26.6668 21.696 24.713 25.2212 21.4968 27.2313L16.5302 30.3355C16.2059 30.5382 15.7944 30.5382 15.4702 30.3355L10.5035 27.2313C7.28731 25.2212 5.3335 21.696 5.3335 17.9034L5.3335 5.33341Z" fill="#F9F9F9"/>
<path fill-rule="evenodd" clip-rule="evenodd" d="M14.9002 19.6667C14.5808 19.6667 14.2613 19.5389 14.0058 19.2833L11.4502 16.7278C10.9391 16.2167 10.9391 15.45 11.4502 14.9389C11.9613 14.4278 12.7919 14.4278 13.2391 14.9389L14.9002 16.6L19.1169 12.3833C19.628 11.8722 20.3947 11.8722 20.9058 12.3833C21.4169 12.8944 21.4169 13.6611 20.9058 14.1722L15.7947 19.2833C15.5391 19.5389 15.2197 19.6667 14.9002 19.6667Z" fill="#F9F9F9"/>
</svg>
