<svg width="26" height="26" viewBox="0 0 26 26" fill="none" xmlns="http://www.w3.org/2000/svg">
<path fill-rule="evenodd" clip-rule="evenodd" d="M25.6538 0.346179C25.9748 0.667205 26.0836 1.14375 25.9336 1.57226L17.6609 25.2086C17.5008 25.666 17.0778 25.9793 16.5936 25.999C16.1094 26.0188 15.6623 25.741 15.4655 25.2982L10.9228 15.0772L0.701841 10.5345C0.259038 10.3377 -0.0187643 9.89056 0.000988335 9.40639C0.020741 8.92222 0.334045 8.49918 0.791409 8.3391L24.4277 0.0663821C24.8562 -0.0835969 25.3328 0.0251529 25.6538 0.346179ZM13.2278 14.4436L16.4147 21.6142L21.9919 5.67947L13.2278 14.4436ZM20.3205 4.00813L4.38582 9.58528L11.5564 12.7722L20.3205 4.00813Z" fill="#F9F9F9"/>
</svg>
