<svg width="27" height="27" viewBox="0 0 27 27" fill="none" xmlns="http://www.w3.org/2000/svg">
<path fill-rule="evenodd" clip-rule="evenodd" d="M26.3925 0.714787C26.7154 1.03804 26.8248 1.51788 26.6739 1.94936L18.3526 25.7494C18.1916 26.2099 17.766 26.5254 17.279 26.5453C16.792 26.5651 16.3422 26.2854 16.1443 25.8396L11.5749 15.5478L1.29386 10.9737C0.848451 10.7755 0.569016 10.3253 0.588885 9.83774C0.608753 9.35022 0.923899 8.92424 1.38395 8.76305L25.1592 0.433053C25.5902 0.282035 26.0696 0.391538 26.3925 0.714787ZM13.8934 14.9098L17.0991 22.1301L22.709 6.08501L13.8934 14.9098ZM21.0278 4.40209L4.99948 10.0179L12.2122 13.2269L21.0278 4.40209Z" fill="#F9F9F9"/>
</svg>
