<svg width="52" height="52" viewBox="0 0 52 52" fill="none" xmlns="http://www.w3.org/2000/svg">
<path opacity="0.1" fill-rule="evenodd" clip-rule="evenodd" d="M0.935547 26.1083C0.935547 12.0877 12.3015 0.72168 26.3222 0.72168C40.3429 0.72168 51.7089 12.0877 51.7089 26.1083C51.7089 40.129 40.3429 51.495 26.3222 51.495C12.3015 51.495 0.935547 40.129 0.935547 26.1083Z" fill="#F9F9F9"/>
<path fill-rule="evenodd" clip-rule="evenodd" d="M25.5619 21.3557L25.6152 22.2342L24.7273 22.1266C21.4955 21.7143 18.672 20.3159 16.2748 17.9675L15.1028 16.8022L14.8009 17.6627C14.1616 19.5809 14.5701 21.6067 15.9019 22.9692C16.6122 23.7221 16.4523 23.8297 15.2271 23.3815C14.8009 23.2381 14.428 23.1305 14.3925 23.1843C14.2682 23.3098 14.6944 24.9412 15.0317 25.5866C15.4934 26.4829 16.4346 27.3614 17.4645 27.8812L18.3346 28.2936L17.3047 28.3115C16.3103 28.3115 16.2748 28.3294 16.3813 28.7059C16.7365 29.8712 18.1393 31.1082 19.702 31.646L20.8029 32.0224L19.844 32.5961C18.4234 33.4208 16.7542 33.8869 15.085 33.9227C14.2859 33.9407 13.6289 34.0124 13.6289 34.0662C13.6289 34.2454 15.7953 35.2494 17.0561 35.6438C20.8384 36.809 25.3311 36.3071 28.705 34.3171C31.1022 32.9009 33.4995 30.0863 34.6182 27.3614C35.222 25.9092 35.8257 23.256 35.8257 21.9832C35.8257 21.1585 35.879 21.051 36.8734 20.065C37.4594 19.4913 38.0099 18.8638 38.1164 18.6846C38.294 18.3439 38.2762 18.3439 37.3706 18.6487C35.8612 19.1865 35.6481 19.1148 36.394 18.3081C36.9444 17.7344 37.6015 16.6946 37.6015 16.3899C37.6015 16.3361 37.3351 16.4257 37.0332 16.5871C36.7136 16.7663 36.0033 17.0353 35.4706 17.1966L34.5117 17.5014L33.6416 16.9098C33.1621 16.5871 32.4873 16.2285 32.1322 16.121C31.2265 15.87 29.8415 15.9058 29.0246 16.1927C26.8049 16.9994 25.4021 19.079 25.5619 21.3557Z" fill="#F9F9F9"/>
</svg>
